<mxfile host="app.diagrams.net" modified="2024-03-08T18:13:22.148Z" agent="Mozilla/5.0 (Windows NT 10.0; Win64; x64) AppleWebKit/537.36 (KHTML, like Gecko) Chrome/121.0.0.0 Safari/537.36 OPR/107.0.0.0" etag="aesPW48rEQGkD-ne7a7h" version="24.0.2" type="github">
  <diagram id="C5RBs43oDa-KdzZeNtuy" name="Page-1">
    <mxGraphModel dx="4306" dy="1394" grid="1" gridSize="10" guides="1" tooltips="1" connect="1" arrows="1" fold="1" page="1" pageScale="1" pageWidth="1169" pageHeight="827" math="0" shadow="0">
      <root>
        <mxCell id="WIyWlLk6GJQsqaUBKTNV-0" />
        <mxCell id="WIyWlLk6GJQsqaUBKTNV-1" parent="WIyWlLk6GJQsqaUBKTNV-0" />
        <mxCell id="fr6Zp4J4kDgTBB2DA1vX-0" value="&lt;b&gt;&lt;font style=&quot;font-size: 48px;&quot;&gt;&lt;font style=&quot;&quot;&gt;Flowchart for&lt;/font&gt;&lt;font style=&quot;&quot;&gt;&amp;nbsp;&lt;/font&gt;&lt;/font&gt;&lt;/b&gt;&lt;div&gt;&lt;b&gt;&lt;font style=&quot;font-size: 72px;&quot;&gt;The Maxwell Chateau&lt;/font&gt;&lt;/b&gt;&lt;/div&gt;" style="text;html=1;align=center;verticalAlign=middle;whiteSpace=wrap;rounded=0;" vertex="1" parent="WIyWlLk6GJQsqaUBKTNV-1">
          <mxGeometry x="-2485" y="-640" width="735" height="380" as="geometry" />
        </mxCell>
        <mxCell id="fr6Zp4J4kDgTBB2DA1vX-5" value="Start" style="html=1;overflow=block;blockSpacing=1;whiteSpace=wrap;fontSize=16.7;fontColor=#3a414a;spacing=3.8;strokeColor=#000000;strokeOpacity=100;fillOpacity=100;rounded=1;absoluteArcSize=1;arcSize=9;fillColor=#00c2a8;strokeWidth=1;lucidId=rr4dldM6VFlr;" vertex="1" parent="WIyWlLk6GJQsqaUBKTNV-1">
          <mxGeometry x="-617" y="-390" width="120" height="60" as="geometry" />
        </mxCell>
        <mxCell id="fr6Zp4J4kDgTBB2DA1vX-6" value="OUTPUT Company Name" style="html=1;overflow=block;blockSpacing=1;whiteSpace=wrap;shape=parallelogram;perimeter=parallelogramPerimeter;anchorPointDirection=0;fontSize=16.7;fontColor=#3a414a;spacing=9;strokeColor=#3a414a;strokeOpacity=100;fillOpacity=100;rounded=1;absoluteArcSize=1;arcSize=9;fillColor=#ff80df;strokeWidth=0.8;lucidId=rr4dJYp74jQk;" vertex="1" parent="WIyWlLk6GJQsqaUBKTNV-1">
          <mxGeometry x="-617" y="-292" width="120" height="90" as="geometry" />
        </mxCell>
        <mxCell id="fr6Zp4J4kDgTBB2DA1vX-7" value="End" style="html=1;overflow=block;blockSpacing=1;whiteSpace=wrap;fontSize=16.7;fontColor=#3a414a;spacing=3.8;strokeColor=#3a414a;strokeOpacity=100;fillOpacity=100;rounded=1;absoluteArcSize=1;arcSize=9;fillColor=#00c2a8;strokeWidth=0.8;lucidId=rr4dPUBD_OKJ;" vertex="1" parent="WIyWlLk6GJQsqaUBKTNV-1">
          <mxGeometry x="1145" y="559" width="120" height="60" as="geometry" />
        </mxCell>
        <mxCell id="fr6Zp4J4kDgTBB2DA1vX-8" value="" style="html=1;jettySize=18;whiteSpace=wrap;fontSize=13;strokeColor=#000000;strokeOpacity=100;strokeWidth=0.8;rounded=1;arcSize=12;edgeStyle=orthogonalEdgeStyle;startArrow=none;endArrow=block;endFill=1;exitX=0.5;exitY=1.006;exitPerimeter=0;entryX=0.5;entryY=-0.004;entryPerimeter=0;lucidId=rr4d2FMCqDAJ;" edge="1" parent="WIyWlLk6GJQsqaUBKTNV-1" source="fr6Zp4J4kDgTBB2DA1vX-5" target="fr6Zp4J4kDgTBB2DA1vX-6">
          <mxGeometry width="100" height="100" relative="1" as="geometry">
            <Array as="points" />
          </mxGeometry>
        </mxCell>
        <mxCell id="fr6Zp4J4kDgTBB2DA1vX-9" value="" style="html=1;jettySize=18;whiteSpace=wrap;fontSize=13;strokeColor=#3a414a;strokeOpacity=100;strokeWidth=0.8;rounded=1;arcSize=12;edgeStyle=orthogonalEdgeStyle;startArrow=none;endArrow=block;endFill=1;exitX=0.5;exitY=1.004;exitPerimeter=0;entryX=0.5;entryY=-0.004;entryPerimeter=0;lucidId=rr4d9koG9U7C;" edge="1" parent="WIyWlLk6GJQsqaUBKTNV-1" source="fr6Zp4J4kDgTBB2DA1vX-6" target="fr6Zp4J4kDgTBB2DA1vX-11">
          <mxGeometry width="100" height="100" relative="1" as="geometry">
            <Array as="points" />
          </mxGeometry>
        </mxCell>
        <mxCell id="fr6Zp4J4kDgTBB2DA1vX-10" value="" style="html=1;overflow=block;blockSpacing=1;whiteSpace=wrap;fontSize=13;spacing=0;strokeColor=#dfe3e8;strokeOpacity=100;rounded=1;absoluteArcSize=1;arcSize=0;strokeWidth=1.5;lucidId=rr4d.3fFyspz;" vertex="1" parent="WIyWlLk6GJQsqaUBKTNV-1">
          <mxGeometry x="-1078" y="-274" width="197" height="195" as="geometry" />
        </mxCell>
        <mxCell id="fr6Zp4J4kDgTBB2DA1vX-11" value="OUTPUT choices 1-7" style="html=1;overflow=block;blockSpacing=1;whiteSpace=wrap;shape=parallelogram;perimeter=parallelogramPerimeter;anchorPointDirection=0;fontSize=16.7;spacing=3.8;strokeColor=#3a414a;strokeOpacity=100;fillOpacity=100;rounded=1;absoluteArcSize=1;arcSize=9;fillColor=#ff80df;strokeWidth=0.8;lucidId=VD4dc545jsyq;" vertex="1" parent="WIyWlLk6GJQsqaUBKTNV-1">
          <mxGeometry x="-617" y="-165" width="120" height="90" as="geometry" />
        </mxCell>
        <mxCell id="fr6Zp4J4kDgTBB2DA1vX-12" value="is the choice valid?" style="html=1;overflow=block;blockSpacing=1;whiteSpace=wrap;rhombus;fontSize=16.7;spacing=3.8;strokeColor=#unset;rounded=1;absoluteArcSize=1;arcSize=9;fillColor=#unset;strokeWidth=NaN;lucidId=YQ4drY80ysN_;" vertex="1" parent="WIyWlLk6GJQsqaUBKTNV-1">
          <mxGeometry x="-617" y="90" width="120" height="90" as="geometry" />
        </mxCell>
        <mxCell id="fr6Zp4J4kDgTBB2DA1vX-13" value="Book a Room" style="html=1;overflow=block;blockSpacing=1;whiteSpace=wrap;shape=parallelogram;perimeter=parallelogramPerimeter;anchorPointDirection=0;fontSize=16.7;spacing=3.8;strokeColor=#3a414a;strokeOpacity=100;fillOpacity=100;rounded=1;absoluteArcSize=1;arcSize=9;fillColor=#ff80df;strokeWidth=0.8;lucidId=5S4d.XPy-Nbl;" vertex="1" parent="WIyWlLk6GJQsqaUBKTNV-1">
          <mxGeometry x="-2176" y="240" width="120" height="90" as="geometry" />
        </mxCell>
        <mxCell id="fr6Zp4J4kDgTBB2DA1vX-14" value="Order Food" style="html=1;overflow=block;blockSpacing=1;whiteSpace=wrap;shape=parallelogram;perimeter=parallelogramPerimeter;anchorPointDirection=0;fontSize=16.7;spacing=3.8;strokeColor=#3a414a;strokeOpacity=100;fillOpacity=100;rounded=1;absoluteArcSize=1;arcSize=9;fillColor=#ff80df;strokeWidth=0.8;lucidId=3T4dZM-_F~DI;" vertex="1" parent="WIyWlLk6GJQsqaUBKTNV-1">
          <mxGeometry x="-1022" y="240" width="120" height="90" as="geometry" />
        </mxCell>
        <mxCell id="fr6Zp4J4kDgTBB2DA1vX-15" value="" style="html=1;jettySize=18;whiteSpace=wrap;fontSize=13.3;fontColor=#333333;fontStyle=1;strokeColor=#3a414a;strokeOpacity=100;strokeWidth=0.8;rounded=1;arcSize=12;edgeStyle=orthogonalEdgeStyle;startArrow=none;endArrow=block;endFill=1;exitX=0.5;exitY=0.988;exitPerimeter=0;entryX=0.5;entryY=-0.004;entryPerimeter=0;lucidId=YW4dXA4mPvfQ;" edge="1" parent="WIyWlLk6GJQsqaUBKTNV-1" source="fr6Zp4J4kDgTBB2DA1vX-12" target="fr6Zp4J4kDgTBB2DA1vX-17">
          <mxGeometry width="100" height="100" relative="1" as="geometry">
            <Array as="points">
              <mxPoint x="-467" y="183" />
            </Array>
          </mxGeometry>
        </mxCell>
        <mxCell id="fr6Zp4J4kDgTBB2DA1vX-16" value="3" style="text;html=1;resizable=0;labelBackgroundColor=default;align=center;verticalAlign=middle;fontStyle=1;fontColor=#333333;fontSize=13.3;" vertex="1" parent="fr6Zp4J4kDgTBB2DA1vX-15">
          <mxGeometry x="-0.4003438476621325" relative="1" as="geometry" />
        </mxCell>
        <mxCell id="fr6Zp4J4kDgTBB2DA1vX-17" value="Apply Staff" style="html=1;overflow=block;blockSpacing=1;whiteSpace=wrap;shape=parallelogram;perimeter=parallelogramPerimeter;anchorPointDirection=0;fontSize=16.7;spacing=3.8;strokeColor=#3a414a;strokeOpacity=100;fillOpacity=100;rounded=1;absoluteArcSize=1;arcSize=9;fillColor=#ff80df;strokeWidth=0.8;lucidId=jY4d1oSNSLOH;" vertex="1" parent="WIyWlLk6GJQsqaUBKTNV-1">
          <mxGeometry x="-617" y="240" width="120" height="90" as="geometry" />
        </mxCell>
        <mxCell id="fr6Zp4J4kDgTBB2DA1vX-18" value="Exit" style="html=1;overflow=block;blockSpacing=1;whiteSpace=wrap;shape=parallelogram;perimeter=parallelogramPerimeter;anchorPointDirection=0;fontSize=16.7;spacing=3.8;strokeColor=#3a414a;strokeOpacity=100;fillOpacity=100;rounded=1;absoluteArcSize=1;arcSize=9;fillColor=#ff80df;strokeWidth=0.8;lucidId=D24dg.ZzTh_C;" vertex="1" parent="WIyWlLk6GJQsqaUBKTNV-1">
          <mxGeometry x="1148" y="244" width="120" height="90" as="geometry" />
        </mxCell>
        <mxCell id="fr6Zp4J4kDgTBB2DA1vX-19" value="" style="html=1;jettySize=18;whiteSpace=wrap;fontSize=13.3;fontColor=#333333;fontStyle=1;strokeColor=#3a414a;strokeOpacity=100;strokeWidth=0.8;rounded=1;arcSize=12;edgeStyle=orthogonalEdgeStyle;startArrow=none;endArrow=block;endFill=1;exitX=0.984;exitY=0.5;exitPerimeter=0;entryX=0.5;entryY=-0.004;entryPerimeter=0;lucidId=-24dcM.oyefK;" edge="1" parent="WIyWlLk6GJQsqaUBKTNV-1" source="fr6Zp4J4kDgTBB2DA1vX-12" target="fr6Zp4J4kDgTBB2DA1vX-28">
          <mxGeometry width="100" height="100" relative="1" as="geometry">
            <Array as="points">
              <mxPoint x="214" y="135" />
            </Array>
          </mxGeometry>
        </mxCell>
        <mxCell id="fr6Zp4J4kDgTBB2DA1vX-20" value="4" style="text;html=1;resizable=0;labelBackgroundColor=default;align=center;verticalAlign=middle;fontStyle=1;fontColor=#333333;fontSize=13.3;" vertex="1" parent="fr6Zp4J4kDgTBB2DA1vX-19">
          <mxGeometry x="0.8529187709041524" relative="1" as="geometry" />
        </mxCell>
        <mxCell id="fr6Zp4J4kDgTBB2DA1vX-21" value="" style="html=1;jettySize=18;whiteSpace=wrap;fontSize=13.3;fontColor=#333333;fontStyle=1;strokeColor=#3a414a;strokeOpacity=100;strokeWidth=0.8;rounded=1;arcSize=12;edgeStyle=orthogonalEdgeStyle;startArrow=none;endArrow=block;endFill=1;exitX=0.016;exitY=0.5;exitPerimeter=0;entryX=0.5;entryY=-0.004;entryPerimeter=0;lucidId=544dxC-d55az;" edge="1" parent="WIyWlLk6GJQsqaUBKTNV-1" source="fr6Zp4J4kDgTBB2DA1vX-12" target="fr6Zp4J4kDgTBB2DA1vX-14">
          <mxGeometry width="100" height="100" relative="1" as="geometry">
            <Array as="points" />
          </mxGeometry>
        </mxCell>
        <mxCell id="fr6Zp4J4kDgTBB2DA1vX-22" value="2" style="text;html=1;resizable=0;labelBackgroundColor=default;align=center;verticalAlign=middle;fontStyle=1;fontColor=#333333;fontSize=13.3;" vertex="1" parent="fr6Zp4J4kDgTBB2DA1vX-21">
          <mxGeometry x="0.7007820373600508" relative="1" as="geometry" />
        </mxCell>
        <mxCell id="fr6Zp4J4kDgTBB2DA1vX-23" value="" style="html=1;jettySize=18;whiteSpace=wrap;fontSize=13.3;fontColor=#333333;fontStyle=1;strokeColor=#3a414a;strokeOpacity=100;strokeWidth=0.8;rounded=1;arcSize=12;edgeStyle=orthogonalEdgeStyle;startArrow=none;endArrow=block;endFill=1;exitX=0.016;exitY=0.5;exitPerimeter=0;entryX=0.5;entryY=-0.004;entryPerimeter=0;lucidId=k54deUb7gBNt;" edge="1" parent="WIyWlLk6GJQsqaUBKTNV-1" source="fr6Zp4J4kDgTBB2DA1vX-12" target="fr6Zp4J4kDgTBB2DA1vX-13">
          <mxGeometry width="100" height="100" relative="1" as="geometry">
            <Array as="points">
              <mxPoint x="-1336" y="135" />
            </Array>
          </mxGeometry>
        </mxCell>
        <mxCell id="fr6Zp4J4kDgTBB2DA1vX-24" value="1" style="text;html=1;resizable=0;labelBackgroundColor=default;align=center;verticalAlign=middle;fontStyle=1;fontColor=#333333;fontSize=13.3;" vertex="1" parent="fr6Zp4J4kDgTBB2DA1vX-23">
          <mxGeometry x="0.9258495944218217" relative="1" as="geometry" />
        </mxCell>
        <mxCell id="fr6Zp4J4kDgTBB2DA1vX-25" value="&quot;The program has been terminated.&quot;" style="html=1;overflow=block;blockSpacing=1;whiteSpace=wrap;shape=parallelogram;perimeter=parallelogramPerimeter;anchorPointDirection=0;fontSize=16.7;spacing=3.8;strokeColor=#3a414a;strokeOpacity=100;fillOpacity=100;rounded=1;absoluteArcSize=1;arcSize=9;fillColor=#ff80df;strokeWidth=0.8;lucidId=n64d3ymG4x3u;" vertex="1" parent="WIyWlLk6GJQsqaUBKTNV-1">
          <mxGeometry x="1131" y="386" width="150" height="120" as="geometry" />
        </mxCell>
        <mxCell id="fr6Zp4J4kDgTBB2DA1vX-26" value="" style="html=1;jettySize=18;whiteSpace=wrap;fontSize=13;strokeColor=#3a414a;strokeOpacity=100;strokeWidth=0.8;rounded=1;arcSize=12;edgeStyle=orthogonalEdgeStyle;startArrow=none;endArrow=block;endFill=1;exitX=0.492;exitY=1.003;exitPerimeter=0;entryX=0.5;entryY=-0.006;entryPerimeter=0;lucidId=H64dyCJtoq.5;" edge="1" parent="WIyWlLk6GJQsqaUBKTNV-1" source="fr6Zp4J4kDgTBB2DA1vX-25" target="fr6Zp4J4kDgTBB2DA1vX-7">
          <mxGeometry width="100" height="100" relative="1" as="geometry">
            <Array as="points" />
          </mxGeometry>
        </mxCell>
        <mxCell id="fr6Zp4J4kDgTBB2DA1vX-27" value="" style="html=1;jettySize=18;whiteSpace=wrap;fontSize=13;strokeColor=#3a414a;strokeOpacity=100;strokeWidth=0.8;rounded=1;arcSize=12;edgeStyle=orthogonalEdgeStyle;startArrow=none;endArrow=block;endFill=1;exitX=0.5;exitY=1.004;exitPerimeter=0;entryX=0.508;entryY=-0.003;entryPerimeter=0;lucidId=RU5deoj77KYH;" edge="1" parent="WIyWlLk6GJQsqaUBKTNV-1" source="fr6Zp4J4kDgTBB2DA1vX-18" target="fr6Zp4J4kDgTBB2DA1vX-25">
          <mxGeometry width="100" height="100" relative="1" as="geometry">
            <Array as="points" />
          </mxGeometry>
        </mxCell>
        <mxCell id="fr6Zp4J4kDgTBB2DA1vX-28" value="House-&#xa;keeping" style="html=1;overflow=block;blockSpacing=1;whiteSpace=wrap;shape=parallelogram;perimeter=parallelogramPerimeter;anchorPointDirection=0;fontSize=16.7;spacing=3.8;strokeColor=#3a414a;strokeOpacity=100;fillOpacity=100;rounded=1;absoluteArcSize=1;arcSize=9;fillColor=#ff80df;strokeWidth=0.8;lucidId=gvBfBff4BDN_;" vertex="1" parent="WIyWlLk6GJQsqaUBKTNV-1">
          <mxGeometry x="154" y="240" width="120" height="90" as="geometry" />
        </mxCell>
        <mxCell id="fr6Zp4J4kDgTBB2DA1vX-29" value="" style="html=1;jettySize=18;whiteSpace=wrap;fontSize=13.3;fontColor=#333333;fontStyle=1;strokeColor=#3a414a;strokeOpacity=100;strokeWidth=0.8;rounded=1;arcSize=12;edgeStyle=orthogonalEdgeStyle;startArrow=none;endArrow=block;endFill=1;exitX=0.984;exitY=0.5;exitPerimeter=0;entryX=0.5;entryY=-0.004;entryPerimeter=0;lucidId=_vBfmU__1XSu;" edge="1" parent="WIyWlLk6GJQsqaUBKTNV-1" source="fr6Zp4J4kDgTBB2DA1vX-12" target="fr6Zp4J4kDgTBB2DA1vX-18">
          <mxGeometry width="100" height="100" relative="1" as="geometry">
            <Array as="points" />
          </mxGeometry>
        </mxCell>
        <mxCell id="fr6Zp4J4kDgTBB2DA1vX-30" value="6" style="text;html=1;resizable=0;labelBackgroundColor=default;align=center;verticalAlign=middle;fontStyle=1;fontColor=#333333;fontSize=13.3;" vertex="1" parent="fr6Zp4J4kDgTBB2DA1vX-29">
          <mxGeometry x="0.92670678750686" relative="1" as="geometry" />
        </mxCell>
        <mxCell id="fr6Zp4J4kDgTBB2DA1vX-31" value="" style="html=1;jettySize=18;whiteSpace=wrap;fontSize=13;strokeColor=#3a414a;strokeOpacity=100;strokeWidth=0.8;rounded=1;arcSize=12;edgeStyle=orthogonalEdgeStyle;startArrow=none;endArrow=block;endFill=1;exitX=0.5;exitY=1.004;exitPerimeter=0;entryX=0.509;entryY=-0.003;entryPerimeter=0;lucidId=DDBfVTI.iJqp;" edge="1" parent="WIyWlLk6GJQsqaUBKTNV-1" source="fr6Zp4J4kDgTBB2DA1vX-13" target="fr6Zp4J4kDgTBB2DA1vX-32">
          <mxGeometry width="100" height="100" relative="1" as="geometry">
            <Array as="points" />
          </mxGeometry>
        </mxCell>
        <mxCell id="fr6Zp4J4kDgTBB2DA1vX-32" value="INPUT name, phone number" style="html=1;overflow=block;blockSpacing=1;whiteSpace=wrap;shape=parallelogram;perimeter=parallelogramPerimeter;anchorPointDirection=0;fontSize=16.7;spacing=3.8;strokeColor=#3a414a;strokeOpacity=100;fillOpacity=100;rounded=1;absoluteArcSize=1;arcSize=9;fillColor=#ff80df;strokeWidth=0.8;lucidId=.DBfbjLe~VoK;" vertex="1" parent="WIyWlLk6GJQsqaUBKTNV-1">
          <mxGeometry x="-2192" y="390" width="150" height="120" as="geometry" />
        </mxCell>
        <mxCell id="fr6Zp4J4kDgTBB2DA1vX-33" value="" style="html=1;jettySize=18;whiteSpace=wrap;fontSize=13;strokeColor=#3a414a;strokeOpacity=100;strokeWidth=0.8;rounded=1;arcSize=12;edgeStyle=orthogonalEdgeStyle;startArrow=none;endArrow=block;endFill=1;exitX=0.492;exitY=1.003;exitPerimeter=0;entryX=0.491;entryY=-0.004;entryPerimeter=0;lucidId=-IBfJ37K~~-6;" edge="1" parent="WIyWlLk6GJQsqaUBKTNV-1" source="fr6Zp4J4kDgTBB2DA1vX-32" target="fr6Zp4J4kDgTBB2DA1vX-34">
          <mxGeometry width="100" height="100" relative="1" as="geometry">
            <Array as="points" />
          </mxGeometry>
        </mxCell>
        <mxCell id="fr6Zp4J4kDgTBB2DA1vX-34" value="INPUT guests" style="html=1;overflow=block;blockSpacing=1;whiteSpace=wrap;shape=parallelogram;perimeter=parallelogramPerimeter;anchorPointDirection=0;fontSize=16.7;spacing=3.8;strokeColor=#3a414a;strokeOpacity=100;fillOpacity=100;rounded=1;absoluteArcSize=1;arcSize=9;fillColor=#ff80df;strokeWidth=0.8;lucidId=_IBffU.3FARN;" vertex="1" parent="WIyWlLk6GJQsqaUBKTNV-1">
          <mxGeometry x="-2192" y="585" width="150" height="105" as="geometry" />
        </mxCell>
        <mxCell id="fr6Zp4J4kDgTBB2DA1vX-35" value="" style="html=1;jettySize=18;whiteSpace=wrap;fontSize=13;strokeColor=#3a414a;strokeOpacity=100;strokeWidth=0.8;rounded=1;arcSize=12;edgeStyle=orthogonalEdgeStyle;startArrow=none;endArrow=block;endFill=1;exitX=0.5;exitY=1.004;exitPerimeter=0;entryX=0.5;entryY=0.01;entryPerimeter=0;lucidId=PMBfM9fcOzz6;" edge="1" parent="WIyWlLk6GJQsqaUBKTNV-1" source="fr6Zp4J4kDgTBB2DA1vX-34" target="fr6Zp4J4kDgTBB2DA1vX-36">
          <mxGeometry width="100" height="100" relative="1" as="geometry">
            <Array as="points" />
          </mxGeometry>
        </mxCell>
        <mxCell id="fr6Zp4J4kDgTBB2DA1vX-36" value="is the number of guests valid?" style="html=1;overflow=block;blockSpacing=1;whiteSpace=wrap;rhombus;fontSize=16.7;spacing=3.8;strokeColor=#unset;rounded=1;absoluteArcSize=1;arcSize=9;fillColor=#unset;strokeWidth=NaN;lucidId=QMBfPcYTiosy;" vertex="1" parent="WIyWlLk6GJQsqaUBKTNV-1">
          <mxGeometry x="-2192" y="765" width="150" height="120" as="geometry" />
        </mxCell>
        <mxCell id="fr6Zp4J4kDgTBB2DA1vX-37" value="" style="html=1;jettySize=18;whiteSpace=wrap;fontSize=13.3;fontColor=#333333;fontStyle=1;strokeColor=#3a414a;strokeOpacity=100;strokeWidth=0.8;rounded=1;arcSize=12;edgeStyle=orthogonalEdgeStyle;startArrow=none;endArrow=block;endFill=1;exitX=0.012;exitY=0.5;exitPerimeter=0;entryX=0.908;entryY=0.5;entryPerimeter=0;lucidId=hQBfeg_kJ0mE;" edge="1" parent="WIyWlLk6GJQsqaUBKTNV-1" source="fr6Zp4J4kDgTBB2DA1vX-36" target="fr6Zp4J4kDgTBB2DA1vX-39">
          <mxGeometry width="100" height="100" relative="1" as="geometry">
            <Array as="points" />
          </mxGeometry>
        </mxCell>
        <mxCell id="fr6Zp4J4kDgTBB2DA1vX-38" value="Yes" style="text;html=1;resizable=0;labelBackgroundColor=default;align=center;verticalAlign=middle;fontStyle=1;fontColor=#333333;fontSize=13.3;" vertex="1" parent="fr6Zp4J4kDgTBB2DA1vX-37">
          <mxGeometry relative="1" as="geometry" />
        </mxCell>
        <mxCell id="fr6Zp4J4kDgTBB2DA1vX-39" value="INPUT reservation details" style="html=1;overflow=block;blockSpacing=1;whiteSpace=wrap;shape=parallelogram;perimeter=parallelogramPerimeter;anchorPointDirection=0;fontSize=16.7;spacing=3.8;strokeColor=#3a414a;strokeOpacity=100;fillOpacity=100;rounded=1;absoluteArcSize=1;arcSize=9;fillColor=#ff80df;strokeWidth=0.8;lucidId=jQBfUBHeJE15;" vertex="1" parent="WIyWlLk6GJQsqaUBKTNV-1">
          <mxGeometry x="-2522" y="761" width="180" height="128" as="geometry" />
        </mxCell>
        <mxCell id="fr6Zp4J4kDgTBB2DA1vX-40" value="" style="html=1;jettySize=18;whiteSpace=wrap;fontSize=13;strokeColor=#3a414a;strokeOpacity=100;strokeWidth=0.8;rounded=1;arcSize=12;edgeStyle=orthogonalEdgeStyle;startArrow=none;endArrow=block;endFill=1;exitX=0.5;exitY=1.003;exitPerimeter=0;entryX=0.49;entryY=-0.003;entryPerimeter=0;lucidId=MTBfAHkEuwZ3;" edge="1" parent="WIyWlLk6GJQsqaUBKTNV-1" source="fr6Zp4J4kDgTBB2DA1vX-39" target="fr6Zp4J4kDgTBB2DA1vX-41">
          <mxGeometry width="100" height="100" relative="1" as="geometry">
            <Array as="points" />
          </mxGeometry>
        </mxCell>
        <mxCell id="fr6Zp4J4kDgTBB2DA1vX-41" value="OUTPUT room recommendations  " style="html=1;overflow=block;blockSpacing=1;whiteSpace=wrap;shape=parallelogram;perimeter=parallelogramPerimeter;anchorPointDirection=0;fontSize=16.7;spacing=3.8;strokeColor=#3a414a;strokeOpacity=100;fillOpacity=100;rounded=1;absoluteArcSize=1;arcSize=9;fillColor=#ff80df;strokeWidth=0.8;lucidId=_UBfgfVL1gmM;" vertex="1" parent="WIyWlLk6GJQsqaUBKTNV-1">
          <mxGeometry x="-2517" y="960" width="173" height="120" as="geometry" />
        </mxCell>
        <mxCell id="fr6Zp4J4kDgTBB2DA1vX-42" value="" style="html=1;jettySize=18;whiteSpace=wrap;fontSize=13;strokeColor=#3a414a;strokeOpacity=100;strokeWidth=0.8;rounded=1;arcSize=12;edgeStyle=orthogonalEdgeStyle;startArrow=none;endArrow=block;endFill=1;exitX=0.5;exitY=1.003;exitPerimeter=0;entryX=0.496;entryY=-0.003;entryPerimeter=0;lucidId=aXBfS48EmTSD;" edge="1" parent="WIyWlLk6GJQsqaUBKTNV-1" source="fr6Zp4J4kDgTBB2DA1vX-41" target="fr6Zp4J4kDgTBB2DA1vX-43">
          <mxGeometry width="100" height="100" relative="1" as="geometry">
            <Array as="points" />
          </mxGeometry>
        </mxCell>
        <mxCell id="fr6Zp4J4kDgTBB2DA1vX-43" value="INPUT room of choice" style="html=1;overflow=block;blockSpacing=1;whiteSpace=wrap;shape=parallelogram;perimeter=parallelogramPerimeter;anchorPointDirection=0;fontSize=16.7;spacing=3.8;strokeColor=#3a414a;strokeOpacity=100;fillOpacity=100;rounded=1;absoluteArcSize=1;arcSize=9;fillColor=#ff80df;strokeWidth=0.8;lucidId=bXBfV4~jAbKO;" vertex="1" parent="WIyWlLk6GJQsqaUBKTNV-1">
          <mxGeometry x="-2512" y="1155" width="165" height="120" as="geometry" />
        </mxCell>
        <mxCell id="fr6Zp4J4kDgTBB2DA1vX-44" value="" style="html=1;jettySize=18;whiteSpace=wrap;fontSize=13;strokeColor=#3a414a;strokeOpacity=100;strokeWidth=0.8;rounded=1;arcSize=12;edgeStyle=orthogonalEdgeStyle;startArrow=none;endArrow=block;endFill=1;exitX=0.5;exitY=1.003;exitPerimeter=0;entryX=0.5;entryY=0.009;entryPerimeter=0;lucidId=OYBfHnxRMO23;" edge="1" parent="WIyWlLk6GJQsqaUBKTNV-1" source="fr6Zp4J4kDgTBB2DA1vX-43" target="fr6Zp4J4kDgTBB2DA1vX-45">
          <mxGeometry width="100" height="100" relative="1" as="geometry">
            <Array as="points" />
          </mxGeometry>
        </mxCell>
        <mxCell id="fr6Zp4J4kDgTBB2DA1vX-45" value="is room of choice valid?" style="html=1;overflow=block;blockSpacing=1;whiteSpace=wrap;rhombus;fontSize=16.7;spacing=3.8;strokeColor=#unset;rounded=1;absoluteArcSize=1;arcSize=9;fillColor=#unset;strokeWidth=NaN;lucidId=PYBfmjSSbYPz;" vertex="1" parent="WIyWlLk6GJQsqaUBKTNV-1">
          <mxGeometry x="-2513" y="1350" width="167" height="120" as="geometry" />
        </mxCell>
        <mxCell id="fr6Zp4J4kDgTBB2DA1vX-46" value="" style="html=1;jettySize=18;whiteSpace=wrap;fontSize=13.3;fontColor=#333333;fontStyle=1;strokeColor=#3a414a;strokeOpacity=100;strokeWidth=0.8;rounded=1;arcSize=12;edgeStyle=orthogonalEdgeStyle;startArrow=none;endArrow=block;endFill=1;exitX=0.012;exitY=0.5;exitPerimeter=0;entryX=0.896;entryY=0.5;entryPerimeter=0;lucidId=iZBfiL4GSvEv;" edge="1" parent="WIyWlLk6GJQsqaUBKTNV-1" source="fr6Zp4J4kDgTBB2DA1vX-45" target="fr6Zp4J4kDgTBB2DA1vX-48">
          <mxGeometry width="100" height="100" relative="1" as="geometry">
            <Array as="points" />
          </mxGeometry>
        </mxCell>
        <mxCell id="fr6Zp4J4kDgTBB2DA1vX-47" value="Yes" style="text;html=1;resizable=0;labelBackgroundColor=default;align=center;verticalAlign=middle;fontStyle=1;fontColor=#333333;fontSize=13.3;" vertex="1" parent="fr6Zp4J4kDgTBB2DA1vX-46">
          <mxGeometry relative="1" as="geometry" />
        </mxCell>
        <mxCell id="fr6Zp4J4kDgTBB2DA1vX-48" value="Room has been successfully booked." style="html=1;overflow=block;blockSpacing=1;whiteSpace=wrap;shape=parallelogram;perimeter=parallelogramPerimeter;anchorPointDirection=0;fontSize=16.7;spacing=3.8;strokeColor=#3a414a;strokeOpacity=100;fillOpacity=100;rounded=1;absoluteArcSize=1;arcSize=9;fillColor=#ff80df;strokeWidth=0.8;lucidId=KZBfASUfLxQ7;" vertex="1" parent="WIyWlLk6GJQsqaUBKTNV-1">
          <mxGeometry x="-2762" y="1350" width="150" height="120" as="geometry" />
        </mxCell>
        <mxCell id="fr6Zp4J4kDgTBB2DA1vX-49" value="OUTPUTS full details in a file/receipt." style="html=1;overflow=block;blockSpacing=1;whiteSpace=wrap;shape=parallelogram;perimeter=parallelogramPerimeter;anchorPointDirection=0;fontSize=16.7;spacing=3.8;strokeColor=#3a414a;strokeOpacity=100;fillOpacity=100;rounded=1;absoluteArcSize=1;arcSize=9;fillColor=#ff80df;strokeWidth=0.8;lucidId=p0BfBBiuCRcG;" vertex="1" parent="WIyWlLk6GJQsqaUBKTNV-1">
          <mxGeometry x="-2537" y="1508" width="165" height="120" as="geometry" />
        </mxCell>
        <mxCell id="fr6Zp4J4kDgTBB2DA1vX-50" value="" style="html=1;jettySize=18;whiteSpace=wrap;fontSize=13.3;fontColor=#333333;fontStyle=1;strokeColor=#3a414a;strokeOpacity=100;strokeWidth=0.8;rounded=1;arcSize=12;edgeStyle=orthogonalEdgeStyle;startArrow=none;endArrow=block;endFill=1;exitX=0.988;exitY=0.5;exitPerimeter=0;entryX=0.097;entryY=0.5;entryPerimeter=0;lucidId=R0BfJch6Im3d;" edge="1" parent="WIyWlLk6GJQsqaUBKTNV-1" source="fr6Zp4J4kDgTBB2DA1vX-45" target="fr6Zp4J4kDgTBB2DA1vX-158">
          <mxGeometry width="100" height="100" relative="1" as="geometry">
            <Array as="points" />
          </mxGeometry>
        </mxCell>
        <mxCell id="fr6Zp4J4kDgTBB2DA1vX-51" value="No" style="text;html=1;resizable=0;labelBackgroundColor=default;align=center;verticalAlign=middle;fontStyle=1;fontColor=#333333;fontSize=13.3;" vertex="1" parent="fr6Zp4J4kDgTBB2DA1vX-50">
          <mxGeometry relative="1" as="geometry" />
        </mxCell>
        <mxCell id="fr6Zp4J4kDgTBB2DA1vX-52" value="" style="html=1;jettySize=18;whiteSpace=wrap;fontSize=13;strokeColor=#3a414a;strokeOpacity=100;strokeWidth=0.8;rounded=1;arcSize=12;edgeStyle=orthogonalEdgeStyle;startArrow=none;endArrow=block;endFill=1;exitX=0.5;exitY=1.004;exitPerimeter=0;entryX=0.509;entryY=-0.003;entryPerimeter=0;lucidId=U8CffuirxULD;" edge="1" parent="WIyWlLk6GJQsqaUBKTNV-1" source="fr6Zp4J4kDgTBB2DA1vX-28" target="fr6Zp4J4kDgTBB2DA1vX-53">
          <mxGeometry width="100" height="100" relative="1" as="geometry">
            <Array as="points" />
          </mxGeometry>
        </mxCell>
        <mxCell id="fr6Zp4J4kDgTBB2DA1vX-53" value="INPUT room number" style="html=1;overflow=block;blockSpacing=1;whiteSpace=wrap;shape=parallelogram;perimeter=parallelogramPerimeter;anchorPointDirection=0;fontSize=16.7;spacing=3.8;strokeColor=#3a414a;strokeOpacity=100;fillOpacity=100;rounded=1;absoluteArcSize=1;arcSize=9;fillColor=#ff80df;strokeWidth=0.8;lucidId=-8CfGQDBl~VP;" vertex="1" parent="WIyWlLk6GJQsqaUBKTNV-1">
          <mxGeometry x="138" y="405" width="150" height="120" as="geometry" />
        </mxCell>
        <mxCell id="fr6Zp4J4kDgTBB2DA1vX-54" value="" style="html=1;jettySize=18;whiteSpace=wrap;fontSize=13;strokeColor=#3a414a;strokeOpacity=100;strokeWidth=0.8;rounded=1;arcSize=12;edgeStyle=orthogonalEdgeStyle;startArrow=none;endArrow=block;endFill=1;exitX=0.5;exitY=1.003;exitPerimeter=0;entryX=0.5;entryY=0.011;entryPerimeter=0;lucidId=_-CfCg-4GNyY;" edge="1" parent="WIyWlLk6GJQsqaUBKTNV-1" source="fr6Zp4J4kDgTBB2DA1vX-53" target="fr6Zp4J4kDgTBB2DA1vX-55">
          <mxGeometry width="100" height="100" relative="1" as="geometry">
            <Array as="points" />
          </mxGeometry>
        </mxCell>
        <mxCell id="fr6Zp4J4kDgTBB2DA1vX-55" value="is the room number valid?" style="html=1;overflow=block;blockSpacing=1;whiteSpace=wrap;rhombus;fontSize=16.7;spacing=3.8;strokeColor=#unset;rounded=1;absoluteArcSize=1;arcSize=9;fillColor=#unset;strokeWidth=NaN;lucidId=.-Cfxs2mi-01;" vertex="1" parent="WIyWlLk6GJQsqaUBKTNV-1">
          <mxGeometry x="145" y="630" width="135" height="120" as="geometry" />
        </mxCell>
        <mxCell id="fr6Zp4J4kDgTBB2DA1vX-56" value="" style="html=1;jettySize=18;whiteSpace=wrap;fontSize=13.3;fontColor=#333333;fontStyle=1;strokeColor=#3a414a;strokeOpacity=100;strokeWidth=0.8;rounded=1;arcSize=12;edgeStyle=orthogonalEdgeStyle;startArrow=none;endArrow=block;endFill=1;exitX=0.012;exitY=0.5;exitPerimeter=0;entryX=0.9;entryY=0.5;entryPerimeter=0;lucidId=Z~Cf7bNeCqhv;" edge="1" parent="WIyWlLk6GJQsqaUBKTNV-1" source="fr6Zp4J4kDgTBB2DA1vX-55" target="fr6Zp4J4kDgTBB2DA1vX-58">
          <mxGeometry width="100" height="100" relative="1" as="geometry">
            <Array as="points" />
          </mxGeometry>
        </mxCell>
        <mxCell id="fr6Zp4J4kDgTBB2DA1vX-57" value="Yes" style="text;html=1;resizable=0;labelBackgroundColor=default;align=center;verticalAlign=middle;fontStyle=1;fontColor=#333333;fontSize=13.3;" vertex="1" parent="fr6Zp4J4kDgTBB2DA1vX-56">
          <mxGeometry relative="1" as="geometry" />
        </mxCell>
        <mxCell id="fr6Zp4J4kDgTBB2DA1vX-58" value="OUTPUT all housekeeping items" style="html=1;overflow=block;blockSpacing=1;whiteSpace=wrap;shape=parallelogram;perimeter=parallelogramPerimeter;anchorPointDirection=0;fontSize=16.7;spacing=3.8;strokeColor=#3a414a;strokeOpacity=100;fillOpacity=100;rounded=1;absoluteArcSize=1;arcSize=9;fillColor=#ff80df;strokeWidth=0.8;lucidId=faDff6~1Nt17;" vertex="1" parent="WIyWlLk6GJQsqaUBKTNV-1">
          <mxGeometry x="-57" y="630" width="156" height="120" as="geometry" />
        </mxCell>
        <mxCell id="fr6Zp4J4kDgTBB2DA1vX-59" value="" style="html=1;jettySize=18;whiteSpace=wrap;fontSize=13.3;fontColor=#333333;fontStyle=1;strokeColor=#3a414a;strokeOpacity=100;strokeWidth=0.8;rounded=1;arcSize=12;edgeStyle=orthogonalEdgeStyle;startArrow=none;endArrow=block;endFill=1;exitX=0.988;exitY=0.5;exitPerimeter=0;entryX=0.1;entryY=0.5;entryPerimeter=0;lucidId=8cDfbe-2pBFW;" edge="1" parent="WIyWlLk6GJQsqaUBKTNV-1" source="fr6Zp4J4kDgTBB2DA1vX-55" target="fr6Zp4J4kDgTBB2DA1vX-99">
          <mxGeometry width="100" height="100" relative="1" as="geometry">
            <Array as="points" />
          </mxGeometry>
        </mxCell>
        <mxCell id="fr6Zp4J4kDgTBB2DA1vX-60" value="No" style="text;html=1;resizable=0;labelBackgroundColor=default;align=center;verticalAlign=middle;fontStyle=1;fontColor=#333333;fontSize=13.3;" vertex="1" parent="fr6Zp4J4kDgTBB2DA1vX-59">
          <mxGeometry relative="1" as="geometry" />
        </mxCell>
        <mxCell id="fr6Zp4J4kDgTBB2DA1vX-61" value="" style="html=1;jettySize=18;whiteSpace=wrap;fontSize=13;strokeColor=#3a414a;strokeOpacity=100;strokeWidth=0.8;rounded=1;arcSize=12;edgeStyle=orthogonalEdgeStyle;startArrow=none;endArrow=block;endFill=1;exitX=0.496;exitY=1.003;exitPerimeter=0;entryX=0.5;entryY=-0.006;entryPerimeter=0;lucidId=SeDfL_7Jvaf2;" edge="1" parent="WIyWlLk6GJQsqaUBKTNV-1" source="fr6Zp4J4kDgTBB2DA1vX-49" target="fr6Zp4J4kDgTBB2DA1vX-62">
          <mxGeometry width="100" height="100" relative="1" as="geometry">
            <Array as="points" />
          </mxGeometry>
        </mxCell>
        <mxCell id="fr6Zp4J4kDgTBB2DA1vX-62" value="S" style="html=1;overflow=block;blockSpacing=1;whiteSpace=wrap;ellipse;fontSize=16.7;spacing=3.8;strokeColor=#unset;rounded=1;absoluteArcSize=1;arcSize=9;fillColor=#unset;strokeWidth=NaN;lucidId=TeDfRItsGduu;" vertex="1" parent="WIyWlLk6GJQsqaUBKTNV-1">
          <mxGeometry x="-2485" y="1665" width="60" height="60" as="geometry" />
        </mxCell>
        <mxCell id="fr6Zp4J4kDgTBB2DA1vX-63" value="S" style="html=1;overflow=block;blockSpacing=1;whiteSpace=wrap;ellipse;fontSize=16.7;spacing=3.8;strokeColor=#unset;rounded=1;absoluteArcSize=1;arcSize=9;fillColor=#unset;strokeWidth=NaN;lucidId=dPEf.7GAn6HV;" vertex="1" parent="WIyWlLk6GJQsqaUBKTNV-1">
          <mxGeometry x="-467" y="-277" width="60" height="60" as="geometry" />
        </mxCell>
        <mxCell id="fr6Zp4J4kDgTBB2DA1vX-64" value="" style="html=1;jettySize=18;whiteSpace=wrap;fontSize=13;strokeColor=#3a414a;strokeOpacity=100;strokeWidth=0.8;rounded=1;arcSize=12;edgeStyle=orthogonalEdgeStyle;startArrow=none;endArrow=block;endFill=1;exitX=-0.006;exitY=0.5;exitPerimeter=0;entryX=0.903;entryY=0.5;entryPerimeter=0;lucidId=QPEfWD4lMZ1m;" edge="1" parent="WIyWlLk6GJQsqaUBKTNV-1" source="fr6Zp4J4kDgTBB2DA1vX-63" target="fr6Zp4J4kDgTBB2DA1vX-6">
          <mxGeometry width="100" height="100" relative="1" as="geometry">
            <Array as="points" />
          </mxGeometry>
        </mxCell>
        <mxCell id="fr6Zp4J4kDgTBB2DA1vX-65" value="" style="html=1;jettySize=18;whiteSpace=wrap;fontSize=13;strokeColor=#3a414a;strokeOpacity=100;strokeWidth=0.8;rounded=1;arcSize=12;edgeStyle=orthogonalEdgeStyle;startArrow=none;endArrow=block;endFill=1;exitX=0.5;exitY=1.004;exitPerimeter=0;entryX=0.491;entryY=-0.004;entryPerimeter=0;lucidId=ZLWf~4if5-wI;" edge="1" parent="WIyWlLk6GJQsqaUBKTNV-1" source="fr6Zp4J4kDgTBB2DA1vX-14" target="fr6Zp4J4kDgTBB2DA1vX-66">
          <mxGeometry width="100" height="100" relative="1" as="geometry">
            <Array as="points" />
          </mxGeometry>
        </mxCell>
        <mxCell id="fr6Zp4J4kDgTBB2DA1vX-66" value="OUTPUT food types" style="html=1;overflow=block;blockSpacing=1;whiteSpace=wrap;shape=parallelogram;perimeter=parallelogramPerimeter;anchorPointDirection=0;fontSize=16.7;spacing=3.8;strokeColor=#3a414a;strokeOpacity=100;fillOpacity=100;rounded=1;absoluteArcSize=1;arcSize=9;fillColor=#ff80df;strokeWidth=0.8;lucidId=sPWfaUSNkCBp;" vertex="1" parent="WIyWlLk6GJQsqaUBKTNV-1">
          <mxGeometry x="-1036" y="375" width="150" height="105" as="geometry" />
        </mxCell>
        <mxCell id="fr6Zp4J4kDgTBB2DA1vX-67" value="" style="html=1;jettySize=18;whiteSpace=wrap;fontSize=13;strokeColor=#3a414a;strokeOpacity=100;strokeWidth=0.8;rounded=1;arcSize=12;edgeStyle=orthogonalEdgeStyle;startArrow=none;endArrow=block;endFill=1;exitX=0.5;exitY=1.004;exitPerimeter=0;entryX=0.505;entryY=-0.004;entryPerimeter=0;lucidId=4PWfp6ukiG-c;" edge="1" parent="WIyWlLk6GJQsqaUBKTNV-1" source="fr6Zp4J4kDgTBB2DA1vX-66" target="fr6Zp4J4kDgTBB2DA1vX-68">
          <mxGeometry width="100" height="100" relative="1" as="geometry">
            <Array as="points" />
          </mxGeometry>
        </mxCell>
        <mxCell id="fr6Zp4J4kDgTBB2DA1vX-68" value="INPUT food type of choice" style="html=1;overflow=block;blockSpacing=1;whiteSpace=wrap;shape=parallelogram;perimeter=parallelogramPerimeter;anchorPointDirection=0;fontSize=16.7;spacing=3.8;strokeColor=#3a414a;strokeOpacity=100;fillOpacity=100;rounded=1;absoluteArcSize=1;arcSize=9;fillColor=#ff80df;strokeWidth=0.8;lucidId=jQWfPaPtcY0H;" vertex="1" parent="WIyWlLk6GJQsqaUBKTNV-1">
          <mxGeometry x="-1029" y="525" width="135" height="105" as="geometry" />
        </mxCell>
        <mxCell id="fr6Zp4J4kDgTBB2DA1vX-69" value="" style="html=1;jettySize=18;whiteSpace=wrap;fontSize=13;strokeColor=#3a414a;strokeOpacity=100;strokeWidth=0.8;rounded=1;arcSize=12;edgeStyle=orthogonalEdgeStyle;startArrow=none;endArrow=block;endFill=1;exitX=0.5;exitY=1.004;exitPerimeter=0;entryX=0.5;entryY=0.011;entryPerimeter=0;lucidId=BTWfQR311Igz;" edge="1" parent="WIyWlLk6GJQsqaUBKTNV-1" source="fr6Zp4J4kDgTBB2DA1vX-68" target="fr6Zp4J4kDgTBB2DA1vX-70">
          <mxGeometry width="100" height="100" relative="1" as="geometry">
            <Array as="points" />
          </mxGeometry>
        </mxCell>
        <mxCell id="fr6Zp4J4kDgTBB2DA1vX-70" value="is food type of choice valid" style="html=1;overflow=block;blockSpacing=1;whiteSpace=wrap;rhombus;fontSize=16.7;spacing=3.8;strokeColor=#unset;rounded=1;absoluteArcSize=1;arcSize=9;fillColor=#FFFFFF;strokeWidth=NaN;lucidId=HTWfPVU2qFlU;" vertex="1" parent="WIyWlLk6GJQsqaUBKTNV-1">
          <mxGeometry x="-1029" y="675" width="134" height="105" as="geometry" />
        </mxCell>
        <mxCell id="fr6Zp4J4kDgTBB2DA1vX-71" value="" style="html=1;jettySize=18;whiteSpace=wrap;fontSize=13.3;fontColor=#333333;fontStyle=1;strokeColor=#3a414a;strokeOpacity=100;strokeWidth=0.8;rounded=1;arcSize=12;edgeStyle=orthogonalEdgeStyle;startArrow=none;endArrow=block;endFill=1;exitX=0.014;exitY=0.5;exitPerimeter=0;entryX=0.907;entryY=0.5;entryPerimeter=0;lucidId=oUWfbguHalt3;" edge="1" parent="WIyWlLk6GJQsqaUBKTNV-1" source="fr6Zp4J4kDgTBB2DA1vX-70" target="fr6Zp4J4kDgTBB2DA1vX-73">
          <mxGeometry width="100" height="100" relative="1" as="geometry">
            <Array as="points" />
          </mxGeometry>
        </mxCell>
        <mxCell id="fr6Zp4J4kDgTBB2DA1vX-72" value="Yes" style="text;html=1;resizable=0;labelBackgroundColor=default;align=center;verticalAlign=middle;fontStyle=1;fontColor=#333333;fontSize=13.3;" vertex="1" parent="fr6Zp4J4kDgTBB2DA1vX-71">
          <mxGeometry relative="1" as="geometry" />
        </mxCell>
        <mxCell id="fr6Zp4J4kDgTBB2DA1vX-73" value="OUTPUT food of choice" style="html=1;overflow=block;blockSpacing=1;whiteSpace=wrap;shape=parallelogram;perimeter=parallelogramPerimeter;anchorPointDirection=0;fontSize=16.7;spacing=3.8;strokeColor=#3a414a;strokeOpacity=100;fillOpacity=100;rounded=1;absoluteArcSize=1;arcSize=9;fillColor=#ff80df;strokeWidth=0.8;lucidId=tUWf18u8qgAM;" vertex="1" parent="WIyWlLk6GJQsqaUBKTNV-1">
          <mxGeometry x="-1247" y="679" width="135" height="98" as="geometry" />
        </mxCell>
        <mxCell id="fr6Zp4J4kDgTBB2DA1vX-74" value="" style="html=1;jettySize=18;whiteSpace=wrap;fontSize=13;strokeColor=#3a414a;strokeOpacity=100;strokeWidth=0.8;rounded=1;arcSize=12;edgeStyle=orthogonalEdgeStyle;startArrow=none;endArrow=block;endFill=1;exitX=0.5;exitY=1.004;exitPerimeter=0;entryX=0.502;entryY=-0.004;entryPerimeter=0;lucidId=gVWfH5Y8_oF~;" edge="1" parent="WIyWlLk6GJQsqaUBKTNV-1" source="fr6Zp4J4kDgTBB2DA1vX-73" target="fr6Zp4J4kDgTBB2DA1vX-75">
          <mxGeometry width="100" height="100" relative="1" as="geometry">
            <Array as="points" />
          </mxGeometry>
        </mxCell>
        <mxCell id="fr6Zp4J4kDgTBB2DA1vX-75" value="INPUT food of choice" style="html=1;overflow=block;blockSpacing=1;whiteSpace=wrap;shape=parallelogram;perimeter=parallelogramPerimeter;anchorPointDirection=0;fontSize=16.7;spacing=3.8;strokeColor=#3a414a;strokeOpacity=100;fillOpacity=100;rounded=1;absoluteArcSize=1;arcSize=9;fillColor=#ff80df;strokeWidth=0.8;lucidId=kVWfFBKzcM70;" vertex="1" parent="WIyWlLk6GJQsqaUBKTNV-1">
          <mxGeometry x="-1244" y="825" width="128" height="98" as="geometry" />
        </mxCell>
        <mxCell id="fr6Zp4J4kDgTBB2DA1vX-76" value="" style="html=1;jettySize=18;whiteSpace=wrap;fontSize=13;strokeColor=#3a414a;strokeOpacity=100;strokeWidth=0.8;rounded=1;arcSize=12;edgeStyle=orthogonalEdgeStyle;startArrow=none;endArrow=block;endFill=1;exitX=0.5;exitY=1.004;exitPerimeter=0;entryX=0.5;entryY=0.012;entryPerimeter=0;lucidId=AVWf~ilK_UmQ;" edge="1" parent="WIyWlLk6GJQsqaUBKTNV-1" source="fr6Zp4J4kDgTBB2DA1vX-75" target="fr6Zp4J4kDgTBB2DA1vX-77">
          <mxGeometry width="100" height="100" relative="1" as="geometry">
            <Array as="points" />
          </mxGeometry>
        </mxCell>
        <mxCell id="fr6Zp4J4kDgTBB2DA1vX-77" value="is food of choice valid" style="html=1;overflow=block;blockSpacing=1;whiteSpace=wrap;rhombus;fontSize=16.7;spacing=3.8;strokeColor=#unset;rounded=1;absoluteArcSize=1;arcSize=9;fillColor=#unset;strokeWidth=NaN;lucidId=CVWfjt4QOCjC;" vertex="1" parent="WIyWlLk6GJQsqaUBKTNV-1">
          <mxGeometry x="-1243" y="975" width="128" height="105" as="geometry" />
        </mxCell>
        <mxCell id="fr6Zp4J4kDgTBB2DA1vX-78" value="" style="html=1;jettySize=18;whiteSpace=wrap;fontSize=13.3;fontColor=#333333;fontStyle=1;strokeColor=#3a414a;strokeOpacity=100;strokeWidth=0.8;rounded=1;arcSize=12;edgeStyle=orthogonalEdgeStyle;startArrow=none;endArrow=block;endFill=1;exitX=0.014;exitY=0.5;exitPerimeter=0;entryX=0.907;entryY=0.5;entryPerimeter=0;lucidId=1VWf8yE4~_Ec;" edge="1" parent="WIyWlLk6GJQsqaUBKTNV-1" source="fr6Zp4J4kDgTBB2DA1vX-77" target="fr6Zp4J4kDgTBB2DA1vX-80">
          <mxGeometry width="100" height="100" relative="1" as="geometry">
            <Array as="points" />
          </mxGeometry>
        </mxCell>
        <mxCell id="fr6Zp4J4kDgTBB2DA1vX-79" value="Yes" style="text;html=1;resizable=0;labelBackgroundColor=default;align=center;verticalAlign=middle;fontStyle=1;fontColor=#333333;fontSize=13.3;" vertex="1" parent="fr6Zp4J4kDgTBB2DA1vX-78">
          <mxGeometry relative="1" as="geometry" />
        </mxCell>
        <mxCell id="fr6Zp4J4kDgTBB2DA1vX-80" value="OUTPUT food of choice" style="html=1;overflow=block;blockSpacing=1;whiteSpace=wrap;shape=parallelogram;perimeter=parallelogramPerimeter;anchorPointDirection=0;fontSize=16.7;spacing=3.8;strokeColor=#3a414a;strokeOpacity=100;fillOpacity=100;rounded=1;absoluteArcSize=1;arcSize=9;fillColor=#ff80df;strokeWidth=0.8;lucidId=3VWfT83a5irq;" vertex="1" parent="WIyWlLk6GJQsqaUBKTNV-1">
          <mxGeometry x="-1457" y="979" width="135" height="98" as="geometry" />
        </mxCell>
        <mxCell id="fr6Zp4J4kDgTBB2DA1vX-81" value="" style="html=1;jettySize=18;whiteSpace=wrap;fontSize=13;strokeColor=#3a414a;strokeOpacity=100;strokeWidth=0.8;rounded=1;arcSize=12;edgeStyle=orthogonalEdgeStyle;startArrow=none;endArrow=block;endFill=1;exitX=0.5;exitY=1.004;exitPerimeter=0;entryX=0.502;entryY=-0.004;entryPerimeter=0;lucidId=EWWfso7Rs6ZB;" edge="1" parent="WIyWlLk6GJQsqaUBKTNV-1" source="fr6Zp4J4kDgTBB2DA1vX-80" target="fr6Zp4J4kDgTBB2DA1vX-82">
          <mxGeometry width="100" height="100" relative="1" as="geometry">
            <Array as="points" />
          </mxGeometry>
        </mxCell>
        <mxCell id="fr6Zp4J4kDgTBB2DA1vX-82" value="INPUT user food decision" style="html=1;overflow=block;blockSpacing=1;whiteSpace=wrap;shape=parallelogram;perimeter=parallelogramPerimeter;anchorPointDirection=0;fontSize=16.7;spacing=3.8;strokeColor=#3a414a;strokeOpacity=100;fillOpacity=100;rounded=1;absoluteArcSize=1;arcSize=9;fillColor=#ff80df;strokeWidth=0.8;lucidId=NWWflf_V-e2m;" vertex="1" parent="WIyWlLk6GJQsqaUBKTNV-1">
          <mxGeometry x="-1453" y="1125" width="128" height="98" as="geometry" />
        </mxCell>
        <mxCell id="fr6Zp4J4kDgTBB2DA1vX-83" value="" style="html=1;jettySize=18;whiteSpace=wrap;fontSize=13;strokeColor=#3a414a;strokeOpacity=100;strokeWidth=0.8;rounded=1;arcSize=12;edgeStyle=orthogonalEdgeStyle;startArrow=none;endArrow=block;endFill=1;exitX=0.5;exitY=1.004;exitPerimeter=0;entryX=0.5;entryY=0.011;entryPerimeter=0;lucidId=1XWfRb4i1LM4;" edge="1" parent="WIyWlLk6GJQsqaUBKTNV-1" source="fr6Zp4J4kDgTBB2DA1vX-82" target="fr6Zp4J4kDgTBB2DA1vX-84">
          <mxGeometry width="100" height="100" relative="1" as="geometry">
            <Array as="points" />
          </mxGeometry>
        </mxCell>
        <mxCell id="fr6Zp4J4kDgTBB2DA1vX-84" value="does the user want to order again" style="html=1;overflow=block;blockSpacing=1;whiteSpace=wrap;rhombus;fontSize=16.7;spacing=3.8;strokeColor=#unset;rounded=1;absoluteArcSize=1;arcSize=9;fillColor=#unset;strokeWidth=NaN;lucidId=2XWfP95wtGFy;" vertex="1" parent="WIyWlLk6GJQsqaUBKTNV-1">
          <mxGeometry x="-1461" y="1260" width="143" height="120" as="geometry" />
        </mxCell>
        <mxCell id="fr6Zp4J4kDgTBB2DA1vX-85" value="S" style="html=1;overflow=block;blockSpacing=1;whiteSpace=wrap;ellipse;fontSize=16.7;spacing=3.8;strokeColor=#unset;rounded=1;absoluteArcSize=1;arcSize=9;fillColor=#unset;strokeWidth=NaN;lucidId=AZWf0RLenUse;" vertex="1" parent="WIyWlLk6GJQsqaUBKTNV-1">
          <mxGeometry x="-1607" y="1290" width="60" height="60" as="geometry" />
        </mxCell>
        <mxCell id="fr6Zp4J4kDgTBB2DA1vX-86" value="" style="html=1;jettySize=18;whiteSpace=wrap;fontSize=13.3;fontColor=#333333;fontStyle=1;strokeColor=#3a414a;strokeOpacity=100;strokeWidth=0.8;rounded=1;arcSize=12;edgeStyle=orthogonalEdgeStyle;startArrow=none;endArrow=block;endFill=1;exitX=0.986;exitY=0.5;exitPerimeter=0;entryX=0.901;entryY=0.5;entryPerimeter=0;lucidId=00WfA_EYZEHj;" edge="1" parent="WIyWlLk6GJQsqaUBKTNV-1" source="fr6Zp4J4kDgTBB2DA1vX-77" target="fr6Zp4J4kDgTBB2DA1vX-75">
          <mxGeometry width="100" height="100" relative="1" as="geometry">
            <Array as="points" />
          </mxGeometry>
        </mxCell>
        <mxCell id="fr6Zp4J4kDgTBB2DA1vX-87" value="No" style="text;html=1;resizable=0;labelBackgroundColor=default;align=center;verticalAlign=middle;fontStyle=1;fontColor=#333333;fontSize=13.3;" vertex="1" parent="fr6Zp4J4kDgTBB2DA1vX-86">
          <mxGeometry relative="1" as="geometry" />
        </mxCell>
        <mxCell id="fr6Zp4J4kDgTBB2DA1vX-88" value="T" style="html=1;overflow=block;blockSpacing=1;whiteSpace=wrap;ellipse;fontSize=16.7;spacing=3.8;strokeColor=#unset;rounded=1;absoluteArcSize=1;arcSize=9;fillColor=#unset;strokeWidth=NaN;lucidId=s1WfEVu_rlp6;" vertex="1" parent="WIyWlLk6GJQsqaUBKTNV-1">
          <mxGeometry x="-992" y="840" width="60" height="60" as="geometry" />
        </mxCell>
        <mxCell id="fr6Zp4J4kDgTBB2DA1vX-89" value="T" style="html=1;overflow=block;blockSpacing=1;whiteSpace=wrap;ellipse;fontSize=16.7;spacing=3.8;strokeColor=#unset;rounded=1;absoluteArcSize=1;arcSize=9;fillColor=#unset;strokeWidth=NaN;lucidId=w1WfqnWr1K6e;" vertex="1" parent="WIyWlLk6GJQsqaUBKTNV-1">
          <mxGeometry x="-1127" y="540" width="60" height="60" as="geometry" />
        </mxCell>
        <mxCell id="fr6Zp4J4kDgTBB2DA1vX-90" value="" style="html=1;jettySize=18;whiteSpace=wrap;fontSize=13;strokeColor=#3a414a;strokeOpacity=100;strokeWidth=0.8;rounded=1;arcSize=12;edgeStyle=orthogonalEdgeStyle;startArrow=none;endArrow=block;endFill=1;exitX=0.5;exitY=1.004;exitPerimeter=0;entryX=0.5;entryY=-0.004;entryPerimeter=0;lucidId=Mw.fNep9MUst;" edge="1" parent="WIyWlLk6GJQsqaUBKTNV-1" source="fr6Zp4J4kDgTBB2DA1vX-11" target="fr6Zp4J4kDgTBB2DA1vX-91">
          <mxGeometry width="100" height="100" relative="1" as="geometry">
            <Array as="points" />
          </mxGeometry>
        </mxCell>
        <mxCell id="fr6Zp4J4kDgTBB2DA1vX-91" value="INPUT choice" style="html=1;overflow=block;blockSpacing=1;whiteSpace=wrap;shape=parallelogram;perimeter=parallelogramPerimeter;anchorPointDirection=0;fontSize=16.7;spacing=3.8;strokeColor=#3a414a;strokeOpacity=100;fillOpacity=100;rounded=1;absoluteArcSize=1;arcSize=9;fillColor=#ff80df;strokeWidth=0.8;lucidId=Nw.fYAJ4PDYG;" vertex="1" parent="WIyWlLk6GJQsqaUBKTNV-1">
          <mxGeometry x="-617" y="-37" width="120" height="90" as="geometry" />
        </mxCell>
        <mxCell id="fr6Zp4J4kDgTBB2DA1vX-92" value="" style="html=1;jettySize=18;whiteSpace=wrap;fontSize=13;strokeColor=#3a414a;strokeOpacity=100;strokeWidth=0.8;rounded=1;arcSize=12;edgeStyle=orthogonalEdgeStyle;startArrow=none;endArrow=block;endFill=1;exitX=0.5;exitY=1.004;exitPerimeter=0;lucidId=Zw.frF2tH-P0;" edge="1" parent="WIyWlLk6GJQsqaUBKTNV-1" source="fr6Zp4J4kDgTBB2DA1vX-91">
          <mxGeometry width="100" height="100" relative="1" as="geometry">
            <Array as="points" />
            <mxPoint x="-557" y="90" as="targetPoint" />
          </mxGeometry>
        </mxCell>
        <mxCell id="fr6Zp4J4kDgTBB2DA1vX-93" value="" style="html=1;jettySize=18;whiteSpace=wrap;fontSize=13.3;fontColor=#333333;fontStyle=1;strokeColor=#3a414a;strokeOpacity=100;strokeWidth=0.8;rounded=1;arcSize=12;edgeStyle=orthogonalEdgeStyle;startArrow=none;endArrow=block;endFill=1;exitX=0.984;exitY=0.5;exitPerimeter=0;entryX=0.5;entryY=-0.004;entryPerimeter=0;lucidId=jI.fOZ1JBNt6;" edge="1" parent="WIyWlLk6GJQsqaUBKTNV-1" source="fr6Zp4J4kDgTBB2DA1vX-12" target="fr6Zp4J4kDgTBB2DA1vX-95">
          <mxGeometry width="100" height="100" relative="1" as="geometry">
            <Array as="points" />
          </mxGeometry>
        </mxCell>
        <mxCell id="fr6Zp4J4kDgTBB2DA1vX-94" value="No" style="text;html=1;resizable=0;labelBackgroundColor=default;align=center;verticalAlign=middle;fontStyle=1;fontColor=#333333;fontSize=13.3;" vertex="1" parent="fr6Zp4J4kDgTBB2DA1vX-93">
          <mxGeometry x="0.9178487350720199" relative="1" as="geometry" />
        </mxCell>
        <mxCell id="fr6Zp4J4kDgTBB2DA1vX-95" value="OUTPUT &quot;please try again&quot;" style="html=1;overflow=block;blockSpacing=1;whiteSpace=wrap;shape=parallelogram;perimeter=parallelogramPerimeter;anchorPointDirection=0;fontSize=16.7;spacing=3.8;strokeColor=#3a414a;strokeOpacity=100;fillOpacity=100;rounded=1;absoluteArcSize=1;arcSize=9;fillColor=#ff80df;strokeWidth=0.8;lucidId=GP.fzbyKbvi5;" vertex="1" parent="WIyWlLk6GJQsqaUBKTNV-1">
          <mxGeometry x="1472" y="244" width="120" height="90" as="geometry" />
        </mxCell>
        <mxCell id="fr6Zp4J4kDgTBB2DA1vX-96" value="" style="html=1;jettySize=18;whiteSpace=wrap;fontSize=13.3;fontColor=#333333;fontStyle=1;strokeColor=#3a414a;strokeOpacity=100;strokeWidth=0.8;rounded=1;arcSize=12;edgeStyle=orthogonalEdgeStyle;startArrow=none;endArrow=block;endFill=1;exitX=0.988;exitY=0.5;exitPerimeter=0;entryX=0.097;entryY=0.5;entryPerimeter=0;lucidId=zf~fwrvGMXvb;" edge="1" parent="WIyWlLk6GJQsqaUBKTNV-1" source="fr6Zp4J4kDgTBB2DA1vX-36" target="fr6Zp4J4kDgTBB2DA1vX-98">
          <mxGeometry width="100" height="100" relative="1" as="geometry">
            <Array as="points" />
          </mxGeometry>
        </mxCell>
        <mxCell id="fr6Zp4J4kDgTBB2DA1vX-97" value="No" style="text;html=1;resizable=0;labelBackgroundColor=default;align=center;verticalAlign=middle;fontStyle=1;fontColor=#333333;fontSize=13.3;" vertex="1" parent="fr6Zp4J4kDgTBB2DA1vX-96">
          <mxGeometry relative="1" as="geometry" />
        </mxCell>
        <mxCell id="fr6Zp4J4kDgTBB2DA1vX-98" value="OUTPUT &quot;please try again&quot;" style="html=1;overflow=block;blockSpacing=1;whiteSpace=wrap;shape=parallelogram;perimeter=parallelogramPerimeter;anchorPointDirection=0;fontSize=16.7;spacing=3.8;strokeColor=#3a414a;strokeOpacity=100;fillOpacity=100;rounded=1;absoluteArcSize=1;arcSize=9;fillColor=#ff80df;strokeWidth=0.8;lucidId=Bf~fXRc4HUUc;" vertex="1" parent="WIyWlLk6GJQsqaUBKTNV-1">
          <mxGeometry x="-1892" y="769" width="150" height="113" as="geometry" />
        </mxCell>
        <mxCell id="fr6Zp4J4kDgTBB2DA1vX-99" value="OUTPUT &quot;please try again&quot;" style="html=1;overflow=block;blockSpacing=1;whiteSpace=wrap;shape=parallelogram;perimeter=parallelogramPerimeter;anchorPointDirection=0;fontSize=16.7;spacing=3.8;strokeColor=#3a414a;strokeOpacity=100;fillOpacity=100;rounded=1;absoluteArcSize=1;arcSize=9;fillColor=#ff80df;strokeWidth=0.8;lucidId=ik~fVCqqvGgh;" vertex="1" parent="WIyWlLk6GJQsqaUBKTNV-1">
          <mxGeometry x="326" y="630" width="156" height="120" as="geometry" />
        </mxCell>
        <mxCell id="fr6Zp4J4kDgTBB2DA1vX-100" value="" style="html=1;jettySize=18;whiteSpace=wrap;fontSize=13;strokeColor=#3a414a;strokeOpacity=100;strokeWidth=0.8;rounded=1;arcSize=12;edgeStyle=orthogonalEdgeStyle;startArrow=none;endArrow=block;endFill=1;exitX=0.5;exitY=1.003;exitPerimeter=0;entryX=0.503;entryY=-0.003;entryPerimeter=0;lucidId=bC~fvqogKcKo;" edge="1" parent="WIyWlLk6GJQsqaUBKTNV-1" source="fr6Zp4J4kDgTBB2DA1vX-58" target="fr6Zp4J4kDgTBB2DA1vX-101">
          <mxGeometry width="100" height="100" relative="1" as="geometry">
            <Array as="points" />
          </mxGeometry>
        </mxCell>
        <mxCell id="fr6Zp4J4kDgTBB2DA1vX-101" value="INPUT item of choice" style="html=1;overflow=block;blockSpacing=1;whiteSpace=wrap;shape=parallelogram;perimeter=parallelogramPerimeter;anchorPointDirection=0;fontSize=16.7;spacing=3.8;strokeColor=#3a414a;strokeOpacity=100;fillOpacity=100;rounded=1;absoluteArcSize=1;arcSize=9;fillColor=#ff80df;strokeWidth=0.8;lucidId=cC~f1bMcEYSg;" vertex="1" parent="WIyWlLk6GJQsqaUBKTNV-1">
          <mxGeometry x="-58" y="795" width="156" height="120" as="geometry" />
        </mxCell>
        <mxCell id="fr6Zp4J4kDgTBB2DA1vX-102" value="" style="html=1;jettySize=18;whiteSpace=wrap;fontSize=13;strokeColor=#3a414a;strokeOpacity=100;strokeWidth=0.8;rounded=1;arcSize=12;edgeStyle=orthogonalEdgeStyle;startArrow=none;endArrow=block;endFill=1;exitX=0.5;exitY=1.003;exitPerimeter=0;entryX=0.5;entryY=0.009;entryPerimeter=0;lucidId=KD~fBHY0pTfn;" edge="1" parent="WIyWlLk6GJQsqaUBKTNV-1" source="fr6Zp4J4kDgTBB2DA1vX-101" target="fr6Zp4J4kDgTBB2DA1vX-103">
          <mxGeometry width="100" height="100" relative="1" as="geometry">
            <Array as="points" />
          </mxGeometry>
        </mxCell>
        <mxCell id="fr6Zp4J4kDgTBB2DA1vX-103" value="is the item of choice valid?" style="html=1;overflow=block;blockSpacing=1;whiteSpace=wrap;rhombus;fontSize=16.7;spacing=3.8;strokeColor=#unset;rounded=1;absoluteArcSize=1;arcSize=9;fillColor=#unset;strokeWidth=NaN;lucidId=LD~fo6~ebj3o;" vertex="1" parent="WIyWlLk6GJQsqaUBKTNV-1">
          <mxGeometry x="-62" y="960" width="164" height="135" as="geometry" />
        </mxCell>
        <mxCell id="fr6Zp4J4kDgTBB2DA1vX-104" value="" style="html=1;jettySize=18;whiteSpace=wrap;fontSize=13.3;fontColor=#333333;fontStyle=1;strokeColor=#3a414a;strokeOpacity=100;strokeWidth=0.8;rounded=1;arcSize=12;edgeStyle=orthogonalEdgeStyle;startArrow=none;endArrow=block;endFill=1;exitX=0.011;exitY=0.5;exitPerimeter=0;entryX=0.495;entryY=-0.004;entryPerimeter=0;lucidId=FP~fQudRKYFb;" edge="1" parent="WIyWlLk6GJQsqaUBKTNV-1" source="fr6Zp4J4kDgTBB2DA1vX-103" target="fr6Zp4J4kDgTBB2DA1vX-106">
          <mxGeometry width="100" height="100" relative="1" as="geometry">
            <Array as="points" />
          </mxGeometry>
        </mxCell>
        <mxCell id="fr6Zp4J4kDgTBB2DA1vX-105" value="1" style="text;html=1;resizable=0;labelBackgroundColor=default;align=center;verticalAlign=middle;fontStyle=1;fontColor=#333333;fontSize=13.3;" vertex="1" parent="fr6Zp4J4kDgTBB2DA1vX-104">
          <mxGeometry x="0.7873531859229166" relative="1" as="geometry" />
        </mxCell>
        <mxCell id="fr6Zp4J4kDgTBB2DA1vX-106" value="OUTPUT &quot;change bedsheets?&quot;" style="html=1;overflow=block;blockSpacing=1;whiteSpace=wrap;shape=parallelogram;perimeter=parallelogramPerimeter;anchorPointDirection=0;fontSize=16.7;spacing=3.8;strokeColor=#3a414a;strokeOpacity=100;fillOpacity=100;rounded=1;absoluteArcSize=1;arcSize=9;fillColor=#ff80df;strokeWidth=0.8;lucidId=mR~fw7qtJo2E;" vertex="1" parent="WIyWlLk6GJQsqaUBKTNV-1">
          <mxGeometry x="-422" y="1095" width="135" height="98" as="geometry" />
        </mxCell>
        <mxCell id="fr6Zp4J4kDgTBB2DA1vX-107" value="INPUT answer" style="html=1;overflow=block;blockSpacing=1;whiteSpace=wrap;shape=parallelogram;perimeter=parallelogramPerimeter;anchorPointDirection=0;fontSize=16.7;spacing=3.8;strokeColor=#3a414a;strokeOpacity=100;fillOpacity=100;rounded=1;absoluteArcSize=1;arcSize=9;fillColor=#ff80df;strokeWidth=0.8;lucidId=sU~fCtav.0S8;" vertex="1" parent="WIyWlLk6GJQsqaUBKTNV-1">
          <mxGeometry x="-50" y="1391" width="135" height="98" as="geometry" />
        </mxCell>
        <mxCell id="fr6Zp4J4kDgTBB2DA1vX-108" value="" style="html=1;jettySize=18;whiteSpace=wrap;fontSize=13.3;fontColor=#333333;fontStyle=1;strokeColor=#3a414a;strokeOpacity=100;strokeWidth=0.8;rounded=1;arcSize=12;edgeStyle=orthogonalEdgeStyle;startArrow=none;endArrow=block;endFill=1;exitX=0.011;exitY=0.5;exitPerimeter=0;entryX=0.5;entryY=-0.004;entryPerimeter=0;lucidId=a6~f8B6UTdVB;" edge="1" parent="WIyWlLk6GJQsqaUBKTNV-1" source="fr6Zp4J4kDgTBB2DA1vX-103" target="fr6Zp4J4kDgTBB2DA1vX-110">
          <mxGeometry width="100" height="100" relative="1" as="geometry">
            <Array as="points" />
          </mxGeometry>
        </mxCell>
        <mxCell id="fr6Zp4J4kDgTBB2DA1vX-109" value="2" style="text;html=1;resizable=0;labelBackgroundColor=default;align=center;verticalAlign=middle;fontStyle=1;fontColor=#333333;fontSize=13.3;" vertex="1" parent="fr6Zp4J4kDgTBB2DA1vX-108">
          <mxGeometry x="0.579260910794136" relative="1" as="geometry" />
        </mxCell>
        <mxCell id="fr6Zp4J4kDgTBB2DA1vX-110" value="OUTPUT &quot;restock or replace toiletries?&quot;" style="html=1;overflow=block;blockSpacing=1;whiteSpace=wrap;shape=parallelogram;perimeter=parallelogramPerimeter;anchorPointDirection=0;fontSize=16.7;spacing=3.8;strokeColor=#3a414a;strokeOpacity=100;fillOpacity=100;rounded=1;absoluteArcSize=1;arcSize=9;fillColor=#ff80df;strokeWidth=0.8;lucidId=e6~fc0LeEY8I;" vertex="1" parent="WIyWlLk6GJQsqaUBKTNV-1">
          <mxGeometry x="-242" y="1095" width="135" height="98" as="geometry" />
        </mxCell>
        <mxCell id="fr6Zp4J4kDgTBB2DA1vX-111" value="" style="html=1;jettySize=18;whiteSpace=wrap;fontSize=13.3;fontColor=#333333;fontStyle=1;strokeColor=#3a414a;strokeOpacity=100;strokeWidth=0.8;rounded=1;arcSize=12;edgeStyle=orthogonalEdgeStyle;startArrow=none;endArrow=block;endFill=1;exitX=0.989;exitY=0.5;exitPerimeter=0;entryX=0.504;entryY=-0.004;entryPerimeter=0;lucidId=h-~f9fl01Ki.;" edge="1" parent="WIyWlLk6GJQsqaUBKTNV-1" source="fr6Zp4J4kDgTBB2DA1vX-103" target="fr6Zp4J4kDgTBB2DA1vX-113">
          <mxGeometry width="100" height="100" relative="1" as="geometry">
            <Array as="points" />
          </mxGeometry>
        </mxCell>
        <mxCell id="fr6Zp4J4kDgTBB2DA1vX-112" value="3" style="text;html=1;resizable=0;labelBackgroundColor=default;align=center;verticalAlign=middle;fontStyle=1;fontColor=#333333;fontSize=13.3;" vertex="1" parent="fr6Zp4J4kDgTBB2DA1vX-111">
          <mxGeometry x="0.597759364851671" relative="1" as="geometry" />
        </mxCell>
        <mxCell id="fr6Zp4J4kDgTBB2DA1vX-113" value="OUTPUT &quot;empty garbage can?&quot;" style="html=1;overflow=block;blockSpacing=1;whiteSpace=wrap;shape=parallelogram;perimeter=parallelogramPerimeter;anchorPointDirection=0;fontSize=16.7;spacing=3.8;strokeColor=#3a414a;strokeOpacity=100;fillOpacity=100;rounded=1;absoluteArcSize=1;arcSize=9;fillColor=#ff80df;strokeWidth=0.8;lucidId=m-~fG710qToN;" vertex="1" parent="WIyWlLk6GJQsqaUBKTNV-1">
          <mxGeometry x="148" y="1099" width="135" height="94" as="geometry" />
        </mxCell>
        <mxCell id="fr6Zp4J4kDgTBB2DA1vX-114" value="" style="html=1;jettySize=18;whiteSpace=wrap;fontSize=13.3;fontColor=#333333;fontStyle=1;strokeColor=#3a414a;strokeOpacity=100;strokeWidth=0.8;rounded=1;arcSize=12;edgeStyle=orthogonalEdgeStyle;startArrow=none;endArrow=block;endFill=1;exitX=0.989;exitY=0.5;exitPerimeter=0;entryX=0.5;entryY=-0.004;entryPerimeter=0;lucidId=V_~fdu~BG86E;" edge="1" parent="WIyWlLk6GJQsqaUBKTNV-1" source="fr6Zp4J4kDgTBB2DA1vX-103" target="fr6Zp4J4kDgTBB2DA1vX-116">
          <mxGeometry width="100" height="100" relative="1" as="geometry">
            <Array as="points" />
          </mxGeometry>
        </mxCell>
        <mxCell id="fr6Zp4J4kDgTBB2DA1vX-115" value="4" style="text;html=1;resizable=0;labelBackgroundColor=default;align=center;verticalAlign=middle;fontStyle=1;fontColor=#333333;fontSize=13.3;" vertex="1" parent="fr6Zp4J4kDgTBB2DA1vX-114">
          <mxGeometry x="0.802475604678101" relative="1" as="geometry" />
        </mxCell>
        <mxCell id="fr6Zp4J4kDgTBB2DA1vX-116" value="OUTPUT &quot;empty garbage can?&quot;" style="html=1;overflow=block;blockSpacing=1;whiteSpace=wrap;shape=parallelogram;perimeter=parallelogramPerimeter;anchorPointDirection=0;fontSize=16.7;spacing=3.8;strokeColor=#3a414a;strokeOpacity=100;fillOpacity=100;rounded=1;absoluteArcSize=1;arcSize=9;fillColor=#ff80df;strokeWidth=0.8;lucidId=X_~fb_WU1U3Q;" vertex="1" parent="WIyWlLk6GJQsqaUBKTNV-1">
          <mxGeometry x="348" y="1097" width="135" height="94" as="geometry" />
        </mxCell>
        <mxCell id="fr6Zp4J4kDgTBB2DA1vX-117" value="" style="html=1;jettySize=18;whiteSpace=wrap;fontSize=13.3;fontColor=#333333;fontStyle=1;strokeColor=#3a414a;strokeOpacity=100;strokeWidth=0.8;rounded=1;arcSize=12;edgeStyle=orthogonalEdgeStyle;startArrow=none;endArrow=block;endFill=1;exitX=0.5;exitY=0.991;exitPerimeter=0;entryX=0.5;entryY=-0.004;entryPerimeter=0;lucidId=w.~f~ixWPSgd;" edge="1" parent="WIyWlLk6GJQsqaUBKTNV-1" source="fr6Zp4J4kDgTBB2DA1vX-103" target="fr6Zp4J4kDgTBB2DA1vX-119">
          <mxGeometry width="100" height="100" relative="1" as="geometry">
            <Array as="points" />
          </mxGeometry>
        </mxCell>
        <mxCell id="fr6Zp4J4kDgTBB2DA1vX-118" value="No" style="text;html=1;resizable=0;labelBackgroundColor=default;align=center;verticalAlign=middle;fontStyle=1;fontColor=#333333;fontSize=13.3;" vertex="1" parent="fr6Zp4J4kDgTBB2DA1vX-117">
          <mxGeometry relative="1" as="geometry" />
        </mxCell>
        <mxCell id="fr6Zp4J4kDgTBB2DA1vX-119" value="OUTPUT &quot;please try again&quot;" style="html=1;overflow=block;blockSpacing=1;whiteSpace=wrap;shape=parallelogram;perimeter=parallelogramPerimeter;anchorPointDirection=0;fontSize=16.7;spacing=3.8;strokeColor=#3a414a;strokeOpacity=100;fillOpacity=100;rounded=1;absoluteArcSize=1;arcSize=9;fillColor=#ff80df;strokeWidth=0.8;lucidId=F.~fqB34ZfbT;" vertex="1" parent="WIyWlLk6GJQsqaUBKTNV-1">
          <mxGeometry x="-47" y="1159" width="135" height="90" as="geometry" />
        </mxCell>
        <mxCell id="fr6Zp4J4kDgTBB2DA1vX-120" value="" style="html=1;jettySize=18;whiteSpace=wrap;fontSize=13;strokeColor=#3a414a;strokeOpacity=100;strokeWidth=0.8;rounded=1;arcSize=12;edgeStyle=orthogonalEdgeStyle;startArrow=none;endArrow=block;endFill=1;exitX=0.5;exitY=1.004;exitPerimeter=0;entryX=0.5;entryY=-0.006;entryPerimeter=0;lucidId=x~~ftlx33hrC;" edge="1" parent="WIyWlLk6GJQsqaUBKTNV-1" source="fr6Zp4J4kDgTBB2DA1vX-119" target="fr6Zp4J4kDgTBB2DA1vX-121">
          <mxGeometry width="100" height="100" relative="1" as="geometry">
            <Array as="points" />
          </mxGeometry>
        </mxCell>
        <mxCell id="fr6Zp4J4kDgTBB2DA1vX-121" value="I" style="html=1;overflow=block;blockSpacing=1;whiteSpace=wrap;ellipse;fontSize=16.7;spacing=3.8;strokeColor=#unset;rounded=1;absoluteArcSize=1;arcSize=9;fillColor=#unset;strokeWidth=NaN;lucidId=z~~fiZLB-mHC;" vertex="1" parent="WIyWlLk6GJQsqaUBKTNV-1">
          <mxGeometry x="-10" y="1290" width="60" height="60" as="geometry" />
        </mxCell>
        <mxCell id="fr6Zp4J4kDgTBB2DA1vX-122" value="I" style="html=1;overflow=block;blockSpacing=1;whiteSpace=wrap;ellipse;fontSize=16.7;spacing=3.8;strokeColor=#unset;rounded=1;absoluteArcSize=1;arcSize=9;fillColor=#unset;strokeWidth=NaN;lucidId=N~~fg~MsonQ-;" vertex="1" parent="WIyWlLk6GJQsqaUBKTNV-1">
          <mxGeometry x="138" y="825" width="60" height="60" as="geometry" />
        </mxCell>
        <mxCell id="fr6Zp4J4kDgTBB2DA1vX-123" value="" style="html=1;jettySize=18;whiteSpace=wrap;fontSize=13;strokeColor=#3a414a;strokeOpacity=100;strokeWidth=0.8;rounded=1;arcSize=12;edgeStyle=orthogonalEdgeStyle;startArrow=none;endArrow=block;endFill=1;exitX=-0.006;exitY=0.5;exitPerimeter=0;entryX=0.9;entryY=0.5;entryPerimeter=0;lucidId=Z~~fWxb8JNLA;" edge="1" parent="WIyWlLk6GJQsqaUBKTNV-1" source="fr6Zp4J4kDgTBB2DA1vX-122" target="fr6Zp4J4kDgTBB2DA1vX-101">
          <mxGeometry width="100" height="100" relative="1" as="geometry">
            <Array as="points" />
          </mxGeometry>
        </mxCell>
        <mxCell id="fr6Zp4J4kDgTBB2DA1vX-124" value="" style="html=1;jettySize=18;whiteSpace=wrap;fontSize=13;strokeColor=#3a414a;strokeOpacity=100;strokeWidth=0.8;rounded=1;arcSize=12;edgeStyle=orthogonalEdgeStyle;startArrow=none;endArrow=block;endFill=1;exitX=0.5;exitY=1.004;exitPerimeter=0;entryX=0.032;entryY=0.82;entryPerimeter=0;lucidId=taagYZ4Rf7jK;" edge="1" parent="WIyWlLk6GJQsqaUBKTNV-1" source="fr6Zp4J4kDgTBB2DA1vX-106" target="fr6Zp4J4kDgTBB2DA1vX-107">
          <mxGeometry width="100" height="100" relative="1" as="geometry">
            <Array as="points" />
          </mxGeometry>
        </mxCell>
        <mxCell id="fr6Zp4J4kDgTBB2DA1vX-125" value="" style="html=1;jettySize=18;whiteSpace=wrap;fontSize=13;strokeColor=#3a414a;strokeOpacity=100;strokeWidth=0.8;rounded=1;arcSize=12;edgeStyle=orthogonalEdgeStyle;startArrow=none;endArrow=block;endFill=1;exitX=0.5;exitY=1.004;exitPerimeter=0;entryX=0.177;entryY=0.064;entryPerimeter=0;lucidId=zaagxtX_vn8z;" edge="1" parent="WIyWlLk6GJQsqaUBKTNV-1" source="fr6Zp4J4kDgTBB2DA1vX-110" target="fr6Zp4J4kDgTBB2DA1vX-107">
          <mxGeometry width="100" height="100" relative="1" as="geometry">
            <Array as="points" />
          </mxGeometry>
        </mxCell>
        <mxCell id="fr6Zp4J4kDgTBB2DA1vX-126" value="" style="html=1;jettySize=18;whiteSpace=wrap;fontSize=13;strokeColor=#3a414a;strokeOpacity=100;strokeWidth=0.8;rounded=1;arcSize=12;edgeStyle=orthogonalEdgeStyle;startArrow=none;endArrow=block;endFill=1;exitX=0.5;exitY=1.004;exitPerimeter=0;entryX=0.986;entryY=0.086;entryPerimeter=0;lucidId=Gaagukxv8kXo;" edge="1" parent="WIyWlLk6GJQsqaUBKTNV-1" source="fr6Zp4J4kDgTBB2DA1vX-113" target="fr6Zp4J4kDgTBB2DA1vX-107">
          <mxGeometry width="100" height="100" relative="1" as="geometry">
            <Array as="points" />
          </mxGeometry>
        </mxCell>
        <mxCell id="fr6Zp4J4kDgTBB2DA1vX-127" value="" style="html=1;jettySize=18;whiteSpace=wrap;fontSize=13;strokeColor=#3a414a;strokeOpacity=100;strokeWidth=0.8;rounded=1;arcSize=12;edgeStyle=orthogonalEdgeStyle;startArrow=none;endArrow=block;endFill=1;exitX=0.5;exitY=1.004;exitPerimeter=0;entryX=0.841;entryY=0.839;entryPerimeter=0;lucidId=UaagPzYvq1jG;" edge="1" parent="WIyWlLk6GJQsqaUBKTNV-1" source="fr6Zp4J4kDgTBB2DA1vX-116" target="fr6Zp4J4kDgTBB2DA1vX-107">
          <mxGeometry width="100" height="100" relative="1" as="geometry">
            <Array as="points" />
          </mxGeometry>
        </mxCell>
        <mxCell id="fr6Zp4J4kDgTBB2DA1vX-128" value="" style="html=1;jettySize=18;whiteSpace=wrap;fontSize=13;strokeColor=#3a414a;strokeOpacity=100;strokeWidth=0.8;rounded=1;arcSize=12;edgeStyle=orthogonalEdgeStyle;startArrow=none;endArrow=block;endFill=1;exitX=0.5;exitY=1.004;exitPerimeter=0;entryX=0.5;entryY=0.008;entryPerimeter=0;lucidId=BfagJZ~XdAjN;" edge="1" parent="WIyWlLk6GJQsqaUBKTNV-1" source="fr6Zp4J4kDgTBB2DA1vX-107" target="fr6Zp4J4kDgTBB2DA1vX-129">
          <mxGeometry width="100" height="100" relative="1" as="geometry">
            <Array as="points" />
          </mxGeometry>
        </mxCell>
        <mxCell id="fr6Zp4J4kDgTBB2DA1vX-129" value="does the user want the staff to clean?" style="html=1;overflow=block;blockSpacing=1;whiteSpace=wrap;rhombus;fontSize=16.7;spacing=3.8;strokeColor=#unset;rounded=1;absoluteArcSize=1;arcSize=9;fillColor=#unset;strokeWidth=NaN;lucidId=CfaglX2gIO9-;" vertex="1" parent="WIyWlLk6GJQsqaUBKTNV-1">
          <mxGeometry x="-71" y="1545" width="178" height="135" as="geometry" />
        </mxCell>
        <mxCell id="fr6Zp4J4kDgTBB2DA1vX-130" value="" style="html=1;jettySize=18;whiteSpace=wrap;fontSize=13.3;fontColor=#333333;fontStyle=1;strokeColor=#3a414a;strokeOpacity=100;strokeWidth=0.8;rounded=1;arcSize=12;edgeStyle=orthogonalEdgeStyle;startArrow=none;endArrow=block;endFill=1;exitX=0.01;exitY=0.5;exitPerimeter=0;entryX=0.907;entryY=0.5;entryPerimeter=0;lucidId=EiagbSRJSD5v;" edge="1" parent="WIyWlLk6GJQsqaUBKTNV-1" source="fr6Zp4J4kDgTBB2DA1vX-129" target="fr6Zp4J4kDgTBB2DA1vX-132">
          <mxGeometry width="100" height="100" relative="1" as="geometry">
            <Array as="points" />
          </mxGeometry>
        </mxCell>
        <mxCell id="fr6Zp4J4kDgTBB2DA1vX-131" value="Yes" style="text;html=1;resizable=0;labelBackgroundColor=default;align=center;verticalAlign=middle;fontStyle=1;fontColor=#333333;fontSize=13.3;" vertex="1" parent="fr6Zp4J4kDgTBB2DA1vX-130">
          <mxGeometry relative="1" as="geometry" />
        </mxCell>
        <mxCell id="fr6Zp4J4kDgTBB2DA1vX-132" value="OUTPUT &quot;okay, it will be cleaned&quot;" style="html=1;overflow=block;blockSpacing=1;whiteSpace=wrap;shape=parallelogram;perimeter=parallelogramPerimeter;anchorPointDirection=0;fontSize=16.7;spacing=3.8;strokeColor=#3a414a;strokeOpacity=100;fillOpacity=100;rounded=1;absoluteArcSize=1;arcSize=9;fillColor=#ff80df;strokeWidth=0.8;lucidId=KiagS.XSn5Bf;" vertex="1" parent="WIyWlLk6GJQsqaUBKTNV-1">
          <mxGeometry x="-308" y="1564" width="135" height="98" as="geometry" />
        </mxCell>
        <mxCell id="fr6Zp4J4kDgTBB2DA1vX-133" value="" style="html=1;jettySize=18;whiteSpace=wrap;fontSize=13.3;fontColor=#333333;fontStyle=1;strokeColor=#3a414a;strokeOpacity=100;strokeWidth=0.8;rounded=1;arcSize=12;edgeStyle=orthogonalEdgeStyle;startArrow=none;endArrow=block;endFill=1;exitX=0.99;exitY=0.5;exitPerimeter=0;entryX=0.093;entryY=0.5;entryPerimeter=0;lucidId=ZjagwM2CMgoC;" edge="1" parent="WIyWlLk6GJQsqaUBKTNV-1" source="fr6Zp4J4kDgTBB2DA1vX-129" target="fr6Zp4J4kDgTBB2DA1vX-135">
          <mxGeometry width="100" height="100" relative="1" as="geometry">
            <Array as="points" />
          </mxGeometry>
        </mxCell>
        <mxCell id="fr6Zp4J4kDgTBB2DA1vX-134" value="No" style="text;html=1;resizable=0;labelBackgroundColor=default;align=center;verticalAlign=middle;fontStyle=1;fontColor=#333333;fontSize=13.3;" vertex="1" parent="fr6Zp4J4kDgTBB2DA1vX-133">
          <mxGeometry relative="1" as="geometry" />
        </mxCell>
        <mxCell id="fr6Zp4J4kDgTBB2DA1vX-135" value="OUTPUT &quot;okay, call us if you want us to clean&quot;" style="html=1;overflow=block;blockSpacing=1;whiteSpace=wrap;shape=parallelogram;perimeter=parallelogramPerimeter;anchorPointDirection=0;fontSize=16.7;spacing=3.8;strokeColor=#3a414a;strokeOpacity=100;fillOpacity=100;rounded=1;absoluteArcSize=1;arcSize=9;fillColor=#ff80df;strokeWidth=0.8;lucidId=8jagmTA07rx7;" vertex="1" parent="WIyWlLk6GJQsqaUBKTNV-1">
          <mxGeometry x="208" y="1564" width="135" height="98" as="geometry" />
        </mxCell>
        <mxCell id="fr6Zp4J4kDgTBB2DA1vX-136" value="OUTPUT &quot;choose more items?&quot;" style="html=1;overflow=block;blockSpacing=1;whiteSpace=wrap;shape=parallelogram;perimeter=parallelogramPerimeter;anchorPointDirection=0;fontSize=16.7;spacing=3.8;strokeColor=#3a414a;strokeOpacity=100;fillOpacity=100;rounded=1;absoluteArcSize=1;arcSize=9;fillColor=#ff80df;strokeWidth=0.8;lucidId=0magtTyjqeB_;" vertex="1" parent="WIyWlLk6GJQsqaUBKTNV-1">
          <mxGeometry x="-50" y="1725" width="135" height="90" as="geometry" />
        </mxCell>
        <mxCell id="fr6Zp4J4kDgTBB2DA1vX-137" value="" style="html=1;jettySize=18;whiteSpace=wrap;fontSize=13;strokeColor=#3a414a;strokeOpacity=100;strokeWidth=0.8;rounded=1;arcSize=12;edgeStyle=orthogonalEdgeStyle;startArrow=none;endArrow=block;endFill=1;exitX=0.5;exitY=1.004;exitPerimeter=0;entryX=0.086;entryY=0.5;entryPerimeter=0;lucidId=joag0FtESG4-;" edge="1" parent="WIyWlLk6GJQsqaUBKTNV-1" source="fr6Zp4J4kDgTBB2DA1vX-132" target="fr6Zp4J4kDgTBB2DA1vX-136">
          <mxGeometry width="100" height="100" relative="1" as="geometry">
            <Array as="points" />
          </mxGeometry>
        </mxCell>
        <mxCell id="fr6Zp4J4kDgTBB2DA1vX-138" value="" style="html=1;jettySize=18;whiteSpace=wrap;fontSize=13;strokeColor=#3a414a;strokeOpacity=100;strokeWidth=0.8;rounded=1;arcSize=12;edgeStyle=orthogonalEdgeStyle;startArrow=none;endArrow=block;endFill=1;exitX=0.5;exitY=1.004;exitPerimeter=0;entryX=0.914;entryY=0.5;entryPerimeter=0;lucidId=moag1PoRf3E7;" edge="1" parent="WIyWlLk6GJQsqaUBKTNV-1" source="fr6Zp4J4kDgTBB2DA1vX-135" target="fr6Zp4J4kDgTBB2DA1vX-136">
          <mxGeometry width="100" height="100" relative="1" as="geometry">
            <Array as="points" />
          </mxGeometry>
        </mxCell>
        <mxCell id="fr6Zp4J4kDgTBB2DA1vX-139" value="" style="html=1;jettySize=18;whiteSpace=wrap;fontSize=13;strokeColor=#3a414a;strokeOpacity=100;strokeWidth=0.8;rounded=1;arcSize=12;edgeStyle=orthogonalEdgeStyle;startArrow=none;endArrow=block;endFill=1;exitX=0.5;exitY=1.004;exitPerimeter=0;entryX=0.5;entryY=-0.004;entryPerimeter=0;lucidId=jpaga3WixDP0;" edge="1" parent="WIyWlLk6GJQsqaUBKTNV-1" source="fr6Zp4J4kDgTBB2DA1vX-136" target="fr6Zp4J4kDgTBB2DA1vX-140">
          <mxGeometry width="100" height="100" relative="1" as="geometry">
            <Array as="points" />
          </mxGeometry>
        </mxCell>
        <mxCell id="fr6Zp4J4kDgTBB2DA1vX-140" value="INPUT answer" style="html=1;overflow=block;blockSpacing=1;whiteSpace=wrap;shape=parallelogram;perimeter=parallelogramPerimeter;anchorPointDirection=0;fontSize=16.7;spacing=3.8;strokeColor=#3a414a;strokeOpacity=100;fillOpacity=100;rounded=1;absoluteArcSize=1;arcSize=9;fillColor=#ff80df;strokeWidth=0.8;lucidId=mpagYPd9tQOM;" vertex="1" parent="WIyWlLk6GJQsqaUBKTNV-1">
          <mxGeometry x="-50" y="1860" width="135" height="90" as="geometry" />
        </mxCell>
        <mxCell id="fr6Zp4J4kDgTBB2DA1vX-141" value="" style="html=1;jettySize=18;whiteSpace=wrap;fontSize=13;strokeColor=#3a414a;strokeOpacity=100;strokeWidth=0.8;rounded=1;arcSize=12;edgeStyle=orthogonalEdgeStyle;startArrow=none;endArrow=block;endFill=1;exitX=0.5;exitY=1.004;exitPerimeter=0;entryX=0.5;entryY=0.011;entryPerimeter=0;lucidId=drag-NmVTQen;" edge="1" parent="WIyWlLk6GJQsqaUBKTNV-1" source="fr6Zp4J4kDgTBB2DA1vX-140" target="fr6Zp4J4kDgTBB2DA1vX-142">
          <mxGeometry width="100" height="100" relative="1" as="geometry">
            <Array as="points" />
          </mxGeometry>
        </mxCell>
        <mxCell id="fr6Zp4J4kDgTBB2DA1vX-142" value="choose more items?" style="html=1;overflow=block;blockSpacing=1;whiteSpace=wrap;rhombus;fontSize=16.7;spacing=3.8;strokeColor=#unset;rounded=1;absoluteArcSize=1;arcSize=9;fillColor=#unset;strokeWidth=NaN;lucidId=hrag~WCV_Gh_;" vertex="1" parent="WIyWlLk6GJQsqaUBKTNV-1">
          <mxGeometry x="-54" y="1995" width="143" height="113" as="geometry" />
        </mxCell>
        <mxCell id="fr6Zp4J4kDgTBB2DA1vX-143" value="" style="html=1;jettySize=18;whiteSpace=wrap;fontSize=13.3;fontColor=#333333;fontStyle=1;strokeColor=#3a414a;strokeOpacity=100;strokeWidth=0.8;rounded=1;arcSize=12;edgeStyle=orthogonalEdgeStyle;startArrow=none;endArrow=block;endFill=1;exitX=0.013;exitY=0.5;exitPerimeter=0;entryX=1.006;entryY=0.5;entryPerimeter=0;lucidId=btagq4TWhm.A;" edge="1" parent="WIyWlLk6GJQsqaUBKTNV-1" source="fr6Zp4J4kDgTBB2DA1vX-142" target="fr6Zp4J4kDgTBB2DA1vX-147">
          <mxGeometry width="100" height="100" relative="1" as="geometry">
            <Array as="points" />
          </mxGeometry>
        </mxCell>
        <mxCell id="fr6Zp4J4kDgTBB2DA1vX-144" value="Yes" style="text;html=1;resizable=0;labelBackgroundColor=default;align=center;verticalAlign=middle;fontStyle=1;fontColor=#333333;fontSize=13.3;" vertex="1" parent="fr6Zp4J4kDgTBB2DA1vX-143">
          <mxGeometry relative="1" as="geometry" />
        </mxCell>
        <mxCell id="fr6Zp4J4kDgTBB2DA1vX-145" value="" style="html=1;jettySize=18;whiteSpace=wrap;fontSize=13.3;fontColor=#333333;fontStyle=1;strokeColor=#3a414a;strokeOpacity=100;strokeWidth=0.8;rounded=1;arcSize=12;edgeStyle=orthogonalEdgeStyle;startArrow=none;endArrow=block;endFill=1;exitX=0.987;exitY=0.5;exitPerimeter=0;entryX=0.086;entryY=0.5;entryPerimeter=0;lucidId=gtagzkiu1XLz;" edge="1" parent="WIyWlLk6GJQsqaUBKTNV-1" source="fr6Zp4J4kDgTBB2DA1vX-142" target="fr6Zp4J4kDgTBB2DA1vX-148">
          <mxGeometry width="100" height="100" relative="1" as="geometry">
            <Array as="points" />
          </mxGeometry>
        </mxCell>
        <mxCell id="fr6Zp4J4kDgTBB2DA1vX-146" value="No" style="text;html=1;resizable=0;labelBackgroundColor=default;align=center;verticalAlign=middle;fontStyle=1;fontColor=#333333;fontSize=13.3;" vertex="1" parent="fr6Zp4J4kDgTBB2DA1vX-145">
          <mxGeometry relative="1" as="geometry" />
        </mxCell>
        <mxCell id="fr6Zp4J4kDgTBB2DA1vX-147" value="H" style="html=1;overflow=block;blockSpacing=1;whiteSpace=wrap;ellipse;fontSize=16.7;spacing=3.8;strokeColor=#unset;rounded=1;absoluteArcSize=1;arcSize=9;fillColor=#unset;strokeWidth=NaN;lucidId=ztagTTdcb5cr;" vertex="1" parent="WIyWlLk6GJQsqaUBKTNV-1">
          <mxGeometry x="-197" y="2021" width="60" height="60" as="geometry" />
        </mxCell>
        <mxCell id="fr6Zp4J4kDgTBB2DA1vX-148" value="OUTPUT &quot;okay, call us for more concerns&quot;" style="html=1;overflow=block;blockSpacing=1;whiteSpace=wrap;shape=parallelogram;perimeter=parallelogramPerimeter;anchorPointDirection=0;fontSize=16.7;spacing=3.8;strokeColor=#3a414a;strokeOpacity=100;fillOpacity=100;rounded=1;absoluteArcSize=1;arcSize=9;fillColor=#ff80df;strokeWidth=0.8;lucidId=9tag9K3.XiH-;" vertex="1" parent="WIyWlLk6GJQsqaUBKTNV-1">
          <mxGeometry x="154" y="2006" width="135" height="90" as="geometry" />
        </mxCell>
        <mxCell id="fr6Zp4J4kDgTBB2DA1vX-149" value="" style="html=1;jettySize=18;whiteSpace=wrap;fontSize=13;strokeColor=#3a414a;strokeOpacity=100;strokeWidth=0.8;rounded=1;arcSize=12;edgeStyle=orthogonalEdgeStyle;startArrow=none;endArrow=block;endFill=1;exitX=0.5;exitY=1.004;exitPerimeter=0;entryX=0.5;entryY=-0.006;entryPerimeter=0;lucidId=IuagZNtt6bs5;" edge="1" parent="WIyWlLk6GJQsqaUBKTNV-1" source="fr6Zp4J4kDgTBB2DA1vX-148" target="fr6Zp4J4kDgTBB2DA1vX-150">
          <mxGeometry width="100" height="100" relative="1" as="geometry">
            <Array as="points" />
          </mxGeometry>
        </mxCell>
        <mxCell id="fr6Zp4J4kDgTBB2DA1vX-150" value="S" style="html=1;overflow=block;blockSpacing=1;whiteSpace=wrap;ellipse;fontSize=16.7;spacing=3.8;strokeColor=#unset;rounded=1;absoluteArcSize=1;arcSize=9;fillColor=#unset;strokeWidth=NaN;lucidId=Quagf~Zb2C4e;" vertex="1" parent="WIyWlLk6GJQsqaUBKTNV-1">
          <mxGeometry x="191" y="2145" width="60" height="60" as="geometry" />
        </mxCell>
        <mxCell id="fr6Zp4J4kDgTBB2DA1vX-151" value="Room Availability - 1" style="html=1;overflow=block;blockSpacing=1;whiteSpace=wrap;fontSize=16.7;spacing=9;strokeColor=#unset;rounded=1;absoluteArcSize=1;arcSize=9;fillColor=#unset;strokeWidth=NaN;lucidId=_yegW8r37aaG;" vertex="1" parent="WIyWlLk6GJQsqaUBKTNV-1">
          <mxGeometry x="-2762" y="1515" width="135" height="105" as="geometry" />
        </mxCell>
        <mxCell id="fr6Zp4J4kDgTBB2DA1vX-152" value="" style="html=1;jettySize=18;whiteSpace=wrap;fontSize=13;strokeColor=#3a414a;strokeOpacity=100;strokeWidth=0.8;rounded=1;arcSize=12;edgeStyle=orthogonalEdgeStyle;startArrow=none;endArrow=block;endFill=1;exitX=0.5;exitY=1.003;exitPerimeter=0;entryX=0.556;entryY=-0.004;entryPerimeter=0;lucidId=LAeg0g99._fg;" edge="1" parent="WIyWlLk6GJQsqaUBKTNV-1" source="fr6Zp4J4kDgTBB2DA1vX-48" target="fr6Zp4J4kDgTBB2DA1vX-151">
          <mxGeometry width="100" height="100" relative="1" as="geometry">
            <Array as="points" />
          </mxGeometry>
        </mxCell>
        <mxCell id="fr6Zp4J4kDgTBB2DA1vX-153" value="" style="html=1;jettySize=18;whiteSpace=wrap;fontSize=13;strokeColor=#3a414a;strokeOpacity=100;strokeWidth=0.8;rounded=1;arcSize=12;edgeStyle=orthogonalEdgeStyle;startArrow=none;endArrow=block;endFill=1;exitX=1.003;exitY=0.5;exitPerimeter=0;entryX=0.095;entryY=0.5;entryPerimeter=0;lucidId=SJeg6Gf0alLT;" edge="1" parent="WIyWlLk6GJQsqaUBKTNV-1" source="fr6Zp4J4kDgTBB2DA1vX-151" target="fr6Zp4J4kDgTBB2DA1vX-49">
          <mxGeometry width="100" height="100" relative="1" as="geometry">
            <Array as="points" />
          </mxGeometry>
        </mxCell>
        <mxCell id="fr6Zp4J4kDgTBB2DA1vX-154" value="Feedback" style="html=1;overflow=block;blockSpacing=1;whiteSpace=wrap;shape=parallelogram;perimeter=parallelogramPerimeter;anchorPointDirection=0;fontSize=16.7;spacing=3.8;strokeColor=#3a414a;strokeOpacity=100;fillOpacity=100;rounded=1;absoluteArcSize=1;arcSize=9;fillColor=#ff80df;strokeWidth=0.8;lucidId=lPfgj1q8lXbt;" vertex="1" parent="WIyWlLk6GJQsqaUBKTNV-1">
          <mxGeometry x="718" y="240" width="120" height="90" as="geometry" />
        </mxCell>
        <mxCell id="fr6Zp4J4kDgTBB2DA1vX-155" value="" style="html=1;jettySize=18;whiteSpace=wrap;fontSize=13.3;fontColor=#333333;fontStyle=1;strokeColor=#3a414a;strokeOpacity=100;strokeWidth=0.8;rounded=1;arcSize=12;edgeStyle=orthogonalEdgeStyle;startArrow=none;endArrow=block;endFill=1;exitX=0.984;exitY=0.5;exitPerimeter=0;entryX=0.5;entryY=-0.004;entryPerimeter=0;lucidId=0PfgyBSZ21-o;" edge="1" parent="WIyWlLk6GJQsqaUBKTNV-1" source="fr6Zp4J4kDgTBB2DA1vX-12" target="fr6Zp4J4kDgTBB2DA1vX-154">
          <mxGeometry width="100" height="100" relative="1" as="geometry">
            <Array as="points" />
          </mxGeometry>
        </mxCell>
        <mxCell id="fr6Zp4J4kDgTBB2DA1vX-156" value="5" style="text;html=1;resizable=0;labelBackgroundColor=default;align=center;verticalAlign=middle;fontStyle=1;fontColor=#333333;fontSize=13.3;" vertex="1" parent="fr6Zp4J4kDgTBB2DA1vX-155">
          <mxGeometry x="0.9186744315155353" relative="1" as="geometry" />
        </mxCell>
        <mxCell id="fr6Zp4J4kDgTBB2DA1vX-157" value="" style="html=1;jettySize=18;whiteSpace=wrap;fontSize=13;strokeColor=#3a414a;strokeOpacity=100;strokeWidth=0.8;rounded=1;arcSize=12;edgeStyle=orthogonalEdgeStyle;startArrow=none;endArrow=block;endFill=1;exitX=0.5;exitY=-0.003;exitPerimeter=0;entryX=0.909;entryY=0.5;entryPerimeter=0;lucidId=qbOgl9LIV3IK;" edge="1" parent="WIyWlLk6GJQsqaUBKTNV-1" source="fr6Zp4J4kDgTBB2DA1vX-98" target="fr6Zp4J4kDgTBB2DA1vX-34">
          <mxGeometry width="100" height="100" relative="1" as="geometry">
            <Array as="points" />
          </mxGeometry>
        </mxCell>
        <mxCell id="fr6Zp4J4kDgTBB2DA1vX-158" value="OUTPUT &quot;please try again&quot;" style="html=1;overflow=block;blockSpacing=1;whiteSpace=wrap;shape=parallelogram;perimeter=parallelogramPerimeter;anchorPointDirection=0;fontSize=16.7;spacing=3.8;strokeColor=#3a414a;strokeOpacity=100;fillOpacity=100;rounded=1;absoluteArcSize=1;arcSize=9;fillColor=#ff80df;strokeWidth=0.8;lucidId=ObOgq_SidbD2;" vertex="1" parent="WIyWlLk6GJQsqaUBKTNV-1">
          <mxGeometry x="-2252" y="1354" width="150" height="113" as="geometry" />
        </mxCell>
        <mxCell id="fr6Zp4J4kDgTBB2DA1vX-159" value="" style="html=1;jettySize=18;whiteSpace=wrap;fontSize=13;strokeColor=#3a414a;strokeOpacity=100;strokeWidth=0.8;rounded=1;arcSize=12;edgeStyle=orthogonalEdgeStyle;startArrow=none;endArrow=block;endFill=1;exitX=0.5;exitY=-0.003;exitPerimeter=0;entryX=0.905;entryY=0.5;entryPerimeter=0;lucidId=1bOgW8Y30Du9;" edge="1" parent="WIyWlLk6GJQsqaUBKTNV-1" source="fr6Zp4J4kDgTBB2DA1vX-158" target="fr6Zp4J4kDgTBB2DA1vX-43">
          <mxGeometry width="100" height="100" relative="1" as="geometry">
            <Array as="points" />
          </mxGeometry>
        </mxCell>
        <mxCell id="fr6Zp4J4kDgTBB2DA1vX-160" value="" style="html=1;jettySize=18;whiteSpace=wrap;fontSize=13;strokeColor=#3a414a;strokeOpacity=100;strokeWidth=0.8;rounded=1;arcSize=12;edgeStyle=orthogonalEdgeStyle;startArrow=none;endArrow=block;endFill=1;exitX=0.903;exitY=0.5;exitPerimeter=0;entryX=0.903;entryY=0.5;entryPerimeter=0;lucidId=FcOgiprNfVnu;" edge="1" parent="WIyWlLk6GJQsqaUBKTNV-1" source="fr6Zp4J4kDgTBB2DA1vX-95" target="fr6Zp4J4kDgTBB2DA1vX-91">
          <mxGeometry width="100" height="100" relative="1" as="geometry">
            <Array as="points" />
          </mxGeometry>
        </mxCell>
        <mxCell id="fr6Zp4J4kDgTBB2DA1vX-161" value="" style="html=1;jettySize=18;whiteSpace=wrap;fontSize=13;strokeColor=#3a414a;strokeOpacity=100;strokeWidth=0.8;rounded=1;arcSize=12;edgeStyle=orthogonalEdgeStyle;startArrow=none;endArrow=block;endFill=1;exitX=0.5;exitY=-0.003;exitPerimeter=0;entryX=0.896;entryY=0.5;entryPerimeter=0;lucidId=ZcOgYwKYKJOn;" edge="1" parent="WIyWlLk6GJQsqaUBKTNV-1" source="fr6Zp4J4kDgTBB2DA1vX-99" target="fr6Zp4J4kDgTBB2DA1vX-53">
          <mxGeometry width="100" height="100" relative="1" as="geometry">
            <Array as="points" />
          </mxGeometry>
        </mxCell>
        <mxCell id="fr6Zp4J4kDgTBB2DA1vX-162" value="H" style="html=1;overflow=block;blockSpacing=1;whiteSpace=wrap;ellipse;fontSize=16.7;spacing=3.8;strokeColor=#unset;rounded=1;absoluteArcSize=1;arcSize=9;fillColor=#unset;strokeWidth=NaN;lucidId=XIOg-YPSp8Sn;" vertex="1" parent="WIyWlLk6GJQsqaUBKTNV-1">
          <mxGeometry x="-182" y="660" width="60" height="60" as="geometry" />
        </mxCell>
        <mxCell id="fr6Zp4J4kDgTBB2DA1vX-163" value="" style="html=1;jettySize=18;whiteSpace=wrap;fontSize=13;strokeColor=#3a414a;strokeOpacity=100;strokeWidth=0.8;rounded=1;arcSize=12;edgeStyle=orthogonalEdgeStyle;startArrow=none;endArrow=block;endFill=1;exitX=1.006;exitY=0.5;exitPerimeter=0;entryX=0.1;entryY=0.5;entryPerimeter=0;lucidId=nJOgKa-sewF_;" edge="1" parent="WIyWlLk6GJQsqaUBKTNV-1" source="fr6Zp4J4kDgTBB2DA1vX-162" target="fr6Zp4J4kDgTBB2DA1vX-58">
          <mxGeometry width="100" height="100" relative="1" as="geometry">
            <Array as="points" />
          </mxGeometry>
        </mxCell>
        <mxCell id="fr6Zp4J4kDgTBB2DA1vX-164" value="" style="html=1;jettySize=18;whiteSpace=wrap;fontSize=13.3;fontColor=#333333;fontStyle=1;strokeColor=#3a414a;strokeOpacity=100;strokeWidth=0.8;rounded=1;arcSize=12;edgeStyle=orthogonalEdgeStyle;startArrow=none;endArrow=block;endFill=1;exitX=0.5;exitY=0.989;exitPerimeter=0;entryX=0.5;entryY=-0.006;entryPerimeter=0;lucidId=OmmhA.eLr_r.;" edge="1" parent="WIyWlLk6GJQsqaUBKTNV-1" source="fr6Zp4J4kDgTBB2DA1vX-70" target="fr6Zp4J4kDgTBB2DA1vX-88">
          <mxGeometry width="100" height="100" relative="1" as="geometry">
            <Array as="points" />
          </mxGeometry>
        </mxCell>
        <mxCell id="fr6Zp4J4kDgTBB2DA1vX-165" value="No" style="text;html=1;resizable=0;labelBackgroundColor=default;align=center;verticalAlign=middle;fontStyle=1;fontColor=#333333;fontSize=13.3;" vertex="1" parent="fr6Zp4J4kDgTBB2DA1vX-164">
          <mxGeometry relative="1" as="geometry" />
        </mxCell>
        <mxCell id="fr6Zp4J4kDgTBB2DA1vX-166" value="" style="html=1;jettySize=18;whiteSpace=wrap;fontSize=13;strokeColor=#3a414a;strokeOpacity=100;strokeWidth=0.8;rounded=1;arcSize=12;edgeStyle=orthogonalEdgeStyle;startArrow=none;endArrow=block;endFill=1;exitX=1.006;exitY=0.5;exitPerimeter=0;entryX=0.116;entryY=0.429;entryPerimeter=0;lucidId=fnmh0d74aku-;" edge="1" parent="WIyWlLk6GJQsqaUBKTNV-1" source="fr6Zp4J4kDgTBB2DA1vX-89" target="fr6Zp4J4kDgTBB2DA1vX-68">
          <mxGeometry width="100" height="100" relative="1" as="geometry">
            <Array as="points" />
          </mxGeometry>
        </mxCell>
        <mxCell id="fr6Zp4J4kDgTBB2DA1vX-167" value="" style="html=1;jettySize=18;whiteSpace=wrap;fontSize=13.3;fontColor=#333333;fontStyle=1;strokeColor=#3a414a;strokeOpacity=100;strokeWidth=0.8;rounded=1;arcSize=12;edgeStyle=orthogonalEdgeStyle;startArrow=none;endArrow=block;endFill=1;exitX=0.988;exitY=0.5;exitPerimeter=0;entryX=0.931;entryY=0.363;entryPerimeter=0;lucidId=apmhqMj-Gfom;" edge="1" parent="WIyWlLk6GJQsqaUBKTNV-1" source="fr6Zp4J4kDgTBB2DA1vX-84" target="fr6Zp4J4kDgTBB2DA1vX-14">
          <mxGeometry width="100" height="100" relative="1" as="geometry">
            <Array as="points" />
          </mxGeometry>
        </mxCell>
        <mxCell id="fr6Zp4J4kDgTBB2DA1vX-168" value="Yes" style="text;html=1;resizable=0;labelBackgroundColor=default;align=center;verticalAlign=middle;fontStyle=1;fontColor=#333333;fontSize=13.3;" vertex="1" parent="fr6Zp4J4kDgTBB2DA1vX-167">
          <mxGeometry x="-0.9255522550260242" relative="1" as="geometry" />
        </mxCell>
        <mxCell id="fr6Zp4J4kDgTBB2DA1vX-169" value="" style="html=1;jettySize=18;whiteSpace=wrap;fontSize=13.3;fontColor=#333333;fontStyle=1;strokeColor=#3a414a;strokeOpacity=100;strokeWidth=0.8;rounded=1;arcSize=12;edgeStyle=orthogonalEdgeStyle;startArrow=none;endArrow=block;endFill=1;exitX=0.012;exitY=0.5;exitPerimeter=0;entryX=1.006;entryY=0.5;entryPerimeter=0;lucidId=7umhafI6fE8n;" edge="1" parent="WIyWlLk6GJQsqaUBKTNV-1" source="fr6Zp4J4kDgTBB2DA1vX-84" target="fr6Zp4J4kDgTBB2DA1vX-85">
          <mxGeometry width="100" height="100" relative="1" as="geometry">
            <Array as="points" />
          </mxGeometry>
        </mxCell>
        <mxCell id="fr6Zp4J4kDgTBB2DA1vX-170" value="No" style="text;html=1;resizable=0;labelBackgroundColor=default;align=center;verticalAlign=middle;fontStyle=1;fontColor=#333333;fontSize=13.3;" vertex="1" parent="fr6Zp4J4kDgTBB2DA1vX-169">
          <mxGeometry relative="1" as="geometry" />
        </mxCell>
      </root>
    </mxGraphModel>
  </diagram>
</mxfile>
